<?xml version="1.0" encoding="utf-8"?>
<!-- Generator: Adobe Illustrator 27.8.0, SVG Export Plug-In . SVG Version: 6.00 Build 0)  -->
<svg version="1.1" id="Layer_1" xmlns="http://www.w3.org/2000/svg" xmlns:xlink="http://www.w3.org/1999/xlink" x="0px" y="0px"
	 viewBox="0 0 841.9 595.3" style="enable-background:new 0 0 841.9 595.3;" xml:space="preserve">
<style type="text/css">
	.st0{fill:#0C112D;}
	.st1{fill:#349980;}
	.st2{fill:#003B33;}
	.st3{fill:#998848;}
	.st4{fill:#E10133;}
	.st5{fill:#FEA621;}
	.st6{fill:url(#SVGID_1_);}
</style>
<g>
	<g>
		<path class="st0" d="M366,247.7c15.5,0,27,2.9,34.5,8.6c7.4,5.7,11.2,14.4,11.2,26.1c0,5.7-1.1,10.6-3.2,14.7
			c-2.1,4.1-5,7.5-8.4,10.2c-3.5,2.7-7.1,4.9-11,6.5l33.9,51.9h-23.8l-28.3-46.6h-17.2v46.6h-21.2V247.7H366z M364.7,265.4h-11.1
			v36.4h11.7c8.8,0,15.2-1.6,19-4.7c3.9-3.1,5.8-7.8,5.8-14c0-6.4-2.1-10.9-6.2-13.6C379.8,266.8,373.4,265.4,364.7,265.4z"/>
		<path class="st0" d="M502.2,365.8h-67.1V247.7h67.1v17.7h-46v30.1h43v17.7h-43v34.7h46V365.8z"/>
		<path class="st0" d="M590.4,365.8h-67.1V247.7h67.1v17.7h-46v30.1h43v17.7h-43v34.7h46V365.8z"/>
		<path class="st0" d="M639,367.4c-10.4,0-18.8-3.9-25.2-11.7c-6.4-7.8-9.7-19.3-9.7-34.6c0-15.4,3.2-27.1,9.8-34.9
			c6.5-7.8,15-11.7,25.6-11.7c6.6,0,12,1.3,16.3,3.8c4.2,2.5,7.6,5.6,10.2,9.3h1c-0.3-1.5-0.7-3.9-1-7c-0.3-3.1-0.5-6.1-0.5-9v-31.4
			h20.8v125.7h-16.2l-3.8-11.7h-0.8c-2.5,3.7-5.9,6.9-10.1,9.5C651.2,366.1,645.7,367.4,639,367.4z M645.3,350.6
			c7.7,0,13.1-2.2,16.3-6.6c3.1-4.4,4.8-11.1,4.9-20v-2.6c0-9.6-1.5-16.9-4.5-22.1c-3-5.1-8.7-7.7-16.9-7.7
			c-6.4,0-11.3,2.6-14.6,7.9c-3.4,5.2-5,12.6-5,22.1c0,9.5,1.7,16.7,5.1,21.7C633.8,348.1,638.8,350.6,645.3,350.6z"/>
		<path class="st0" d="M750.7,365.8h-49.6v-12.1l14.2-5.3v-83.2l-14.2-5.5v-12.1h49.6v12.1l-14.2,5.5v83.2l14.2,5.3V365.8z"/>
	</g>
	<path d="M684.2,288c0,0.2,0.1,0.3,0.1,0.5C684.3,288.3,684.2,288.1,684.2,288z"/>
	<g>
		<path class="st0" d="M236.5,228.4c-6.5,0-12.1,4.1-14,9.9H197l-20.5,20h13.4l11.1-10.8h21.6c2,5.7,7.5,9.9,14,9.9
			c8.2,0,14.8-6.5,14.8-14.5S244.7,228.4,236.5,228.4z M236.5,248.1c-3,0-5.4-2.4-5.4-5.3c0-2.9,2.4-5.3,5.4-5.3s5.4,2.4,5.4,5.3
			C241.9,245.8,239.5,248.1,236.5,248.1z"/>
		<path class="st0" d="M236.5,286.8c-6.5,0-12.1,4.1-14,9.9h-21.6l-12.4-12.1h-13.4l21.8,21.3h25.5c2,5.7,7.5,9.9,14,9.9
			c8.2,0,14.8-6.5,14.8-14.5C251.3,293.3,244.7,286.8,236.5,286.8z M236.5,306.5c-3,0-5.4-2.4-5.4-5.3c0-2.9,2.4-5.3,5.4-5.3
			s5.4,2.4,5.4,5.3C241.9,304.2,239.5,306.5,236.5,306.5z"/>
		<path class="st1" d="M259.6,254.2c-8,0-14.8,5.3-16.8,12.6H101.8c-0.1,1.5-0.1,3-0.1,4.5c0,1.5,0,3,0.1,4.5h140.9
			c2,7.2,8.8,12.6,16.8,12.6c9.6,0,17.5-7.7,17.5-17.1C277.1,261.9,269.2,254.2,259.6,254.2z M259.6,279.4c-4.6,0-8.3-3.6-8.3-8.1
			c0-4.5,3.7-8.1,8.3-8.1c4.6,0,8.3,3.6,8.3,8.1C267.9,275.8,264.2,279.4,259.6,279.4z"/>
		<g>
			<path class="st1" d="M200.8,202.6c-7.5,0-13.8,5-15.7,11.7h-15.1l-36.3,33.9h-29c-0.8,2.9-1.4,5.5-1.8,8.4h12.4
				c0,0.1,21.8,0,21.8,0l36.3-33.9h11.7c1.9,6.7,8.2,11.7,15.7,11.7c9,0,16.3-7.1,16.3-15.9C217.1,209.8,209.8,202.6,200.8,202.6z
				 M200.8,226.1c-4.2,0-7.7-3.4-7.7-7.5c0-4.1,3.4-7.5,7.7-7.5c4.2,0,7.7,3.4,7.7,7.5C208.5,222.7,205.1,226.1,200.8,226.1z"/>
			<path class="st1" d="M102.9,256.8C102.9,256.8,102.9,256.8,102.9,256.8C102.9,256.8,102.9,256.8,102.9,256.8L102.9,256.8z"/>
			<path class="st1" d="M102.9,256.7c0,0,0-0.1,0-0.1h0C102.9,256.7,102.9,256.7,102.9,256.7z"/>
		</g>
		<path class="st1" d="M200.8,310c-7.5,0-13.8,5-15.7,11.7h-14.8l-36-35.1H103c0.5,2.8,1.1,5.7,1.8,8.4c0,0,12.7-0.1,12.7-0.1h13.4
			l36,35.1h18.3c1.9,6.7,8.2,11.7,15.7,11.7c9,0,16.3-7.1,16.3-15.9C217.1,317.1,209.8,310,200.8,310z M200.8,333.4
			c-4.2,0-7.7-3.4-7.7-7.5c0-4.1,3.4-7.5,7.7-7.5c4.2,0,7.7,3.4,7.7,7.5C208.5,330,205.1,333.4,200.8,333.4z"/>
		<path class="st0" d="M105.4,235.2H135c13.2-24.7,39.3-41.6,69.3-41.6c43.4,0,78.6,35.2,78.6,78.6s-35.2,78.6-78.6,78.6
			c-30.3,0-56.6-17.2-69.7-42.3H107l-15.3,12.9l0.4,0.7l12.6,20.2l0.4,0.7l27.5-12.1c2.7,3.3,5.6,6.4,8.8,9.3l-11.5,27.6l0.7,0.4
			l20.4,12.2l0.7,0.4l18.2-22.5c4.1,1.6,8.3,3,12.7,4l4,27.7h25.4l3.7-25.8c5.4-0.7,10.7-1.8,15.8-3.4l15.8,20l0.7-0.4l20.6-11.9
			l0.7-0.4l-8.9-22.1c4.7-3.6,9.1-7.6,13-12l21.1,9.1l0.4-0.7l12.4-20.3l0.4-0.7l-17.6-14.6c2.3-5.8,4.1-11.9,5.2-18.3l22-3.2v-25.4
			l-21.9-3.1c-1.1-6.3-2.8-12.5-5.1-18.3l17.5-14.1l-0.4-0.7l-12.2-20.4l-0.4-0.7l-21.1,8.8c-4-4.5-8.4-8.7-13.2-12.3l9.4-21.3
			l-0.7-0.4l-20.2-12.6l-0.7-0.4l-16.7,19.8c-5.2-1.6-10.5-2.8-16-3.5l-3.7-25.8h-24.6l-0.8,0l-4,27.6c-4.7,1.1-9.2,2.6-13.5,4.4
			L152.2,164l-0.7,0.4l-20.8,11.6l-0.7,0.4l10.9,28.5c-2.9,2.8-5.7,5.7-8.2,8.8l-28.5-11.9l-0.4,0.7l-12.2,20.4l-0.4,0.7
			L105.4,235.2z"/>
	</g>
	<g>
		<path class="st1" d="M292.5,164.8c3.2,0,5.6,0.6,7.1,1.8c1.5,1.2,2.3,3,2.3,5.4c0,1.2-0.2,2.2-0.7,3c-0.4,0.8-1,1.5-1.7,2.1
			c-0.7,0.6-1.5,1-2.3,1.4l7,10.8h-4.9l-5.9-9.7h-3.6v9.7h-4.4v-24.4H292.5z M292.2,168.5h-2.3v7.5h2.4c1.8,0,3.1-0.3,3.9-1
			c0.8-0.7,1.2-1.6,1.2-2.9c0-1.3-0.4-2.3-1.3-2.8C295.4,168.7,294,168.5,292.2,168.5z"/>
		<path class="st1" d="M321.6,189.2h-13.9v-24.4h13.9v3.7h-9.5v6.2h8.9v3.7h-8.9v7.2h9.5V189.2z"/>
		<path class="st1" d="M335.5,189.2h-4.4v-20.8h-7v-3.7h18.4v3.7h-7V189.2z"/>
		<path class="st1" d="M365.8,189.2h-4.4v-10.9h-10.8v10.9h-4.4v-24.4h4.4v9.9h10.8v-9.9h4.4V189.2z"/>
		<path class="st1" d="M380.5,189.2h-10.3v-2.5l2.9-1.1v-17.2l-2.9-1.1v-2.5h10.3v2.5l-2.9,1.1v17.2l2.9,1.1V189.2z"/>
		<path class="st1" d="M405.6,189.2h-5.4l-11.6-19.2h-0.1c0,1,0.1,2.1,0.2,3.3s0.1,2.4,0.2,3.5v12.3h-3.9v-24.4h5.4l11.5,19h0.1
			c0-0.9-0.1-2-0.1-3.1c-0.1-1.2-0.1-2.3-0.1-3.5v-12.4h4V189.2z"/>
		<path class="st1" d="M431,189.2h-5l-7.3-10.8l-2.3,1.8v9H412v-24.4h4.4v11.5c0.5-0.6,0.9-1.2,1.4-1.8s1-1.2,1.4-1.8l6.6-8h5
			l-9,10.8L431,189.2z"/>
		<path class="st1" d="M442.5,189.2h-10.3v-2.5l2.9-1.1v-17.2l-2.9-1.1v-2.5h10.3v2.5l-2.9,1.1v17.2l2.9,1.1V189.2z"/>
		<path class="st1" d="M467.6,189.2h-5.4l-11.6-19.2h-0.1c0,1,0.1,2.1,0.2,3.3c0.1,1.2,0.1,2.4,0.2,3.5v12.3h-3.9v-24.4h5.4l11.5,19
			h0.1c0-0.9-0.1-2-0.1-3.1c-0.1-1.2-0.1-2.3-0.1-3.5v-12.4h4V189.2z"/>
		<path class="st1" d="M483.7,175.8h9.2v12.4c-1.3,0.4-2.6,0.8-4,1c-1.4,0.2-2.9,0.3-4.7,0.3c-3.7,0-6.5-1.1-8.5-3.3
			c-2-2.2-3-5.3-3-9.3c0-2.6,0.5-4.8,1.5-6.6c1-1.9,2.4-3.3,4.3-4.3c1.9-1,4.2-1.5,6.9-1.5c1.3,0,2.6,0.1,3.9,0.4
			c1.2,0.3,2.4,0.6,3.4,1.1l-1.5,3.6c-0.8-0.4-1.7-0.7-2.7-1c-1-0.3-2.1-0.4-3.2-0.4c-1.7,0-3.1,0.4-4.3,1.1
			c-1.2,0.7-2.1,1.8-2.8,3.1s-1,2.9-1,4.7c0,1.7,0.3,3.3,0.8,4.6c0.5,1.3,1.3,2.4,2.4,3.1c1.1,0.8,2.5,1.1,4.3,1.1
			c0.9,0,1.6,0,2.2-0.1s1.2-0.2,1.7-0.3v-5.9h-4.9V175.8z"/>
		<path class="st1" d="M521.7,189.2h-13.9v-24.4h13.9v3.7h-9.5v6.2h8.9v3.7h-8.9v7.2h9.5V189.2z"/>
		<path class="st1" d="M547.6,189.2h-5.4l-11.6-19.2h-0.1c0,1,0.1,2.1,0.2,3.3c0.1,1.2,0.1,2.4,0.2,3.5v12.3h-3.9v-24.4h5.4l11.5,19
			h0.1c0-0.9-0.1-2-0.1-3.1c-0.1-1.2-0.1-2.3-0.1-3.5v-12.4h4V189.2z"/>
		<path class="st1" d="M563.8,175.8h9.2v12.4c-1.3,0.4-2.6,0.8-4,1c-1.4,0.2-2.9,0.3-4.7,0.3c-3.7,0-6.5-1.1-8.5-3.3
			c-2-2.2-3-5.3-3-9.3c0-2.6,0.5-4.8,1.5-6.6c1-1.9,2.4-3.3,4.3-4.3c1.9-1,4.2-1.5,6.9-1.5c1.3,0,2.6,0.1,3.9,0.4
			c1.2,0.3,2.4,0.6,3.4,1.1l-1.5,3.6c-0.8-0.4-1.7-0.7-2.7-1c-1-0.3-2.1-0.4-3.2-0.4c-1.7,0-3.1,0.4-4.3,1.1
			c-1.2,0.7-2.1,1.8-2.8,3.1s-1,2.9-1,4.7c0,1.7,0.3,3.3,0.8,4.6c0.5,1.3,1.3,2.4,2.4,3.1c1.1,0.8,2.5,1.1,4.3,1.1
			c0.9,0,1.6,0,2.2-0.1s1.2-0.2,1.7-0.3v-5.9h-4.9V175.8z"/>
		<path class="st1" d="M587.2,189.2h-10.3v-2.5l2.9-1.1v-17.2l-2.9-1.1v-2.5h10.3v2.5l-2.9,1.1v17.2l2.9,1.1V189.2z"/>
		<path class="st1" d="M612.3,189.2h-5.4l-11.6-19.2h-0.1c0,1,0.1,2.1,0.2,3.3c0.1,1.2,0.1,2.4,0.2,3.5v12.3h-3.9v-24.4h5.4l11.5,19
			h0.1c0-0.9-0.1-2-0.1-3.1c-0.1-1.2-0.1-2.3-0.1-3.5v-12.4h4V189.2z"/>
		<path class="st1" d="M632.6,189.2h-13.9v-24.4h13.9v3.7h-9.5v6.2h8.9v3.7h-8.9v7.2h9.5V189.2z"/>
		<path class="st1" d="M651.7,189.2h-13.9v-24.4h13.9v3.7h-9.5v6.2h8.9v3.7h-8.9v7.2h9.5V189.2z"/>
		<path class="st1" d="M663.9,164.8c3.2,0,5.6,0.6,7.1,1.8c1.5,1.2,2.3,3,2.3,5.4c0,1.2-0.2,2.2-0.7,3c-0.4,0.8-1,1.5-1.7,2.1
			c-0.7,0.6-1.5,1-2.3,1.4l7,10.8h-4.9l-5.9-9.7h-3.6v9.7h-4.4v-24.4H663.9z M663.6,168.5h-2.3v7.5h2.4c1.8,0,3.1-0.3,3.9-1
			s1.2-1.6,1.2-2.9c0-1.3-0.4-2.3-1.3-2.8C666.7,168.7,665.4,168.5,663.6,168.5z"/>
		<path class="st1" d="M687.3,189.2H677v-2.5l2.9-1.1v-17.2l-2.9-1.1v-2.5h10.3v2.5l-2.9,1.1v17.2l2.9,1.1V189.2z"/>
		<path class="st1" d="M712.5,189.2H707l-11.6-19.2h-0.1c0,1,0.1,2.1,0.2,3.3c0.1,1.2,0.1,2.4,0.2,3.5v12.3h-3.9v-24.4h5.4l11.5,19
			h0.1c0-0.9-0.1-2-0.1-3.1c-0.1-1.2-0.1-2.3-0.1-3.5v-12.4h4V189.2z"/>
		<path class="st1" d="M728.6,175.8h9.2v12.4c-1.3,0.4-2.6,0.8-4,1c-1.4,0.2-2.9,0.3-4.7,0.3c-3.7,0-6.5-1.1-8.5-3.3
			c-2-2.2-3-5.3-3-9.3c0-2.6,0.5-4.8,1.5-6.6c1-1.9,2.4-3.3,4.3-4.3c1.9-1,4.2-1.5,6.9-1.5c1.3,0,2.6,0.1,3.9,0.4
			c1.2,0.3,2.4,0.6,3.4,1.1l-1.5,3.6c-0.8-0.4-1.7-0.7-2.7-1c-1-0.3-2.1-0.4-3.2-0.4c-1.7,0-3.1,0.4-4.3,1.1
			c-1.2,0.7-2.1,1.8-2.8,3.1s-1,2.9-1,4.7c0,1.7,0.3,3.3,0.8,4.6c0.5,1.3,1.3,2.4,2.4,3.1c1.1,0.8,2.5,1.1,4.3,1.1
			c0.9,0,1.6,0,2.2-0.1s1.2-0.2,1.7-0.3v-5.9h-4.9V175.8z"/>
		<path class="st1" d="M362.2,227.4h-13.9V203h13.9v3.7h-9.5v6.2h8.9v3.7h-8.9v7.2h9.5V227.4z"/>
		<path class="st1" d="M387.4,215c0,4.1-1.2,7.2-3.5,9.3c-2.3,2.1-5.5,3.1-9.7,3.1h-6.9V203h7.6c2.5,0,4.7,0.5,6.6,1.4
			c1.8,0.9,3.3,2.3,4.3,4C386.9,210.2,387.4,212.4,387.4,215z M382.8,215.1c0-2.9-0.7-5.1-2-6.4c-1.3-1.4-3.3-2.1-5.8-2.1h-3.2v17.2
			h2.6C380,223.8,382.8,220.9,382.8,215.1z"/>
		<path class="st1" d="M412,203v15.8c0,1.7-0.4,3.2-1.1,4.6c-0.7,1.4-1.8,2.4-3.3,3.2c-1.5,0.8-3.3,1.2-5.5,1.2
			c-3.2,0-5.6-0.8-7.2-2.5c-1.6-1.7-2.5-3.8-2.5-6.6V203h4.4v15.3c0,2,0.5,3.5,1.4,4.4c0.9,0.9,2.3,1.4,4.1,1.4
			c1.9,0,3.3-0.5,4.1-1.5c0.9-1,1.3-2.4,1.3-4.3V203H412z"/>
		<path class="st1" d="M428.6,206.3c-2.2,0-3.9,0.8-5.2,2.4c-1.2,1.6-1.8,3.8-1.8,6.5c0,2.8,0.6,5,1.7,6.5c1.1,1.6,2.9,2.3,5.3,2.3
			c1,0,2-0.1,3-0.3c1-0.2,2-0.5,3.1-0.9v3.7c-1,0.4-2,0.7-3,0.9c-1,0.2-2.2,0.3-3.5,0.3c-2.5,0-4.6-0.5-6.2-1.6
			c-1.6-1-2.9-2.5-3.7-4.4s-1.2-4.1-1.2-6.6c0-2.5,0.4-4.6,1.3-6.5c0.9-1.9,2.2-3.4,3.9-4.4c1.7-1.1,3.8-1.6,6.3-1.6
			c1.2,0,2.4,0.1,3.6,0.4c1.2,0.3,2.3,0.7,3.4,1.2l-1.5,3.6c-0.9-0.4-1.8-0.7-2.7-1C430.5,206.5,429.6,206.3,428.6,206.3z"/>
		<path class="st1" d="M455.1,227.4l-2.2-6.5h-9.2l-2.2,6.5h-4.7l9-24.6h5l9,24.6H455.1z M451.7,217.2l-2.1-6.3
			c-0.1-0.3-0.2-0.7-0.4-1.3c-0.2-0.6-0.4-1.1-0.5-1.7c-0.2-0.6-0.3-1.1-0.4-1.5c-0.1,0.5-0.3,1-0.4,1.6c-0.2,0.6-0.3,1.2-0.5,1.7
			c-0.1,0.5-0.3,0.9-0.4,1.2l-2.2,6.3H451.7z"/>
		<path class="st1" d="M469.3,227.4h-4.4v-20.8h-7V203h18.4v3.7h-7V227.4z"/>
		<path class="st1" d="M488.3,227.4h-10.3v-2.5l2.9-1.1v-17.2l-2.9-1.1V203h10.3v2.5l-2.9,1.1v17.2l2.9,1.1V227.4z"/>
		<path class="st1" d="M514.6,215.2c0,2.5-0.4,4.7-1.2,6.6c-0.8,1.9-2.1,3.4-3.8,4.4c-1.7,1.1-3.9,1.6-6.4,1.6
			c-2.6,0-4.8-0.5-6.5-1.6c-1.7-1-3-2.5-3.8-4.4c-0.8-1.9-1.2-4.1-1.2-6.6c0-2.5,0.4-4.7,1.2-6.6c0.8-1.9,2.1-3.3,3.8-4.4
			c1.7-1,3.9-1.6,6.5-1.6c2.6,0,4.7,0.5,6.4,1.6c1.7,1,3,2.5,3.8,4.4C514.2,210.4,514.6,212.6,514.6,215.2z M496.2,215.2
			c0,2.8,0.6,4.9,1.7,6.5s2.8,2.4,5.2,2.4c2.4,0,4.2-0.8,5.3-2.4c1.1-1.6,1.6-3.7,1.6-6.5c0-2.8-0.5-4.9-1.6-6.5
			c-1.1-1.6-2.8-2.4-5.2-2.4c-2.4,0-4.1,0.8-5.3,2.4S496.2,212.4,496.2,215.2z"/>
		<path class="st1" d="M540.6,227.4h-5.4l-11.6-19.2h-0.1c0,1,0.1,2.1,0.2,3.3c0.1,1.2,0.1,2.4,0.2,3.5v12.3h-3.9V203h5.4l11.5,19
			h0.1c0-0.9-0.1-2-0.1-3.1c-0.1-1.2-0.1-2.3-0.1-3.5V203h4V227.4z"/>
		<path class="st1" d="M564.1,227.4h-10.3v-2.5l2.9-1.1v-17.2l-2.9-1.1V203h10.3v2.5l-2.9,1.1v17.2l2.9,1.1V227.4z"/>
		<path class="st1" d="M589.3,227.4h-5.4l-11.6-19.2h-0.1c0,1,0.1,2.1,0.2,3.3c0.1,1.2,0.1,2.4,0.2,3.5v12.3h-3.9V203h5.4l11.5,19
			h0.1c0-0.9-0.1-2-0.1-3.1c-0.1-1.2-0.1-2.3-0.1-3.5V203h4V227.4z"/>
		<path class="st1" d="M612.8,227.4h-10.3v-2.5l2.9-1.1v-17.2l-2.9-1.1V203h10.3v2.5l-2.9,1.1v17.2l2.9,1.1V227.4z"/>
		<path class="st1" d="M624.2,203c3.2,0,5.6,0.6,7.1,1.8c1.5,1.2,2.3,3,2.3,5.4c0,1.2-0.2,2.2-0.7,3c-0.4,0.8-1,1.5-1.7,2.1
			c-0.7,0.6-1.5,1-2.3,1.4l7,10.8H631l-5.9-9.7h-3.6v9.7h-4.4V203H624.2z M623.9,206.6h-2.3v7.5h2.4c1.8,0,3.1-0.3,3.9-1
			s1.2-1.6,1.2-2.9c0-1.3-0.4-2.3-1.3-2.8C627,206.9,625.7,206.6,623.9,206.6z"/>
		<path class="st1" d="M653.3,227.4h-13.9V203h13.9v3.7h-9.5v6.2h8.9v3.7h-8.9v7.2h9.5V227.4z"/>
		<path class="st1" d="M658.5,227.4V203h4.4v20.8H673v3.7H658.5z"/>
		<path class="st1" d="M692.4,227.4l-2.2-6.5H681l-2.2,6.5h-4.7l9-24.6h5l9,24.6H692.4z M689,217.2l-2.1-6.3
			c-0.1-0.3-0.2-0.7-0.4-1.3c-0.2-0.6-0.4-1.1-0.5-1.7c-0.2-0.6-0.3-1.1-0.4-1.5c-0.1,0.5-0.3,1-0.4,1.6c-0.2,0.6-0.3,1.2-0.5,1.7
			c-0.1,0.5-0.3,0.9-0.4,1.2l-2.2,6.3H689z"/>
		<path class="st1" d="M721.1,227.4h-5.4L704,208.3h-0.1c0,1,0.1,2.1,0.2,3.3c0.1,1.2,0.1,2.4,0.2,3.5v12.3h-3.9V203h5.4l11.5,19
			h0.1c0-0.9-0.1-2-0.1-3.1c-0.1-1.2-0.1-2.3-0.1-3.5V203h4V227.4z"/>
		<path class="st1" d="M747.4,215c0,4.1-1.2,7.2-3.5,9.3s-5.5,3.1-9.7,3.1h-6.9V203h7.6c2.5,0,4.7,0.5,6.6,1.4
			c1.8,0.9,3.3,2.3,4.3,4C746.9,210.2,747.4,212.4,747.4,215z M742.8,215.1c0-2.9-0.7-5.1-2-6.4s-3.3-2.1-5.8-2.1h-3.2v17.2h2.6
			C740,223.8,742.8,220.9,742.8,215.1z"/>
	</g>
</g>
<g>
	<path class="st0" d="M279.2,88.6c0,3.2-1.1,5.6-3.4,7.4c-2.3,1.8-5.4,2.6-9.3,2.6c-2,0-3.8-0.1-5.5-0.5c-1.7-0.3-3.1-0.7-4.2-1.2
		v-4.3c1.2,0.5,2.7,1,4.5,1.5c1.8,0.4,3.6,0.6,5.5,0.6c2.6,0,4.6-0.5,6-1.6c1.4-1,2-2.4,2-4.2c0-1.2-0.2-2.1-0.8-3
		c-0.5-0.8-1.4-1.5-2.6-2.2c-1.2-0.7-2.9-1.4-5-2.2c-3.1-1.1-5.4-2.5-6.9-4c-1.5-1.6-2.3-3.8-2.3-6.6c0-1.9,0.5-3.5,1.5-4.9
		c1-1.4,2.3-2.4,4-3.1c1.7-0.7,3.7-1.1,6-1.1c1.9,0,3.7,0.2,5.3,0.6c1.6,0.4,3.1,0.9,4.5,1.4l-1.4,3.9c-1.2-0.5-2.6-1-4-1.4
		c-1.5-0.4-3-0.5-4.5-0.5c-2.2,0-3.9,0.5-5,1.4c-1.1,1-1.7,2.2-1.7,3.8c0,1.2,0.2,2.2,0.8,3c0.5,0.8,1.3,1.5,2.5,2.2
		c1.1,0.6,2.7,1.3,4.6,2c2.1,0.8,3.9,1.6,5.3,2.5c1.5,0.9,2.5,1.9,3.3,3.2C278.8,85.2,279.2,86.7,279.2,88.6z"/>
	<path class="st0" d="M298.6,70.8c3.3,0,6,1.1,8,3.4c2,2.3,3,5.8,3,10.4c0,4.6-1,8-3,10.4c-2,2.4-4.7,3.5-8,3.5
		c-2.1,0-3.8-0.4-5.1-1.1c-1.4-0.8-2.4-1.7-3.2-2.8h-0.3c0,0.6,0.1,1.3,0.2,2.1c0.1,0.9,0.1,1.6,0.1,2.2v11h-4.4V71.3h3.6L290,75
		h0.2c0.8-1.2,1.8-2.1,3.1-3C294.7,71.2,296.4,70.8,298.6,70.8z M297.8,74.5c-2.7,0-4.7,0.8-5.8,2.3c-1.1,1.5-1.7,3.9-1.8,7v0.8
		c0,3.3,0.5,5.8,1.6,7.6c1.1,1.8,3.1,2.7,6,2.7c1.6,0,2.9-0.4,4-1.3c1.1-0.9,1.9-2.1,2.4-3.7c0.5-1.6,0.8-3.4,0.8-5.4
		c0-3.1-0.6-5.5-1.8-7.4C302.1,75.4,300.2,74.5,297.8,74.5z"/>
	<path class="st0" d="M339.9,84.7c0,4.4-1.1,7.9-3.4,10.3c-2.2,2.4-5.3,3.6-9.1,3.6c-2.4,0-4.5-0.5-6.3-1.6
		c-1.8-1.1-3.3-2.7-4.4-4.8c-1.1-2.1-1.6-4.6-1.6-7.6c0-4.4,1.1-7.8,3.3-10.2c2.2-2.4,5.3-3.6,9.1-3.6c2.4,0,4.5,0.5,6.4,1.6
		c1.9,1.1,3.3,2.6,4.4,4.7C339.3,79.2,339.9,81.7,339.9,84.7z M319.6,84.7c0,3.2,0.6,5.7,1.9,7.5c1.2,1.8,3.2,2.8,6,2.8
		c2.7,0,4.7-0.9,5.9-2.8c1.3-1.9,1.9-4.4,1.9-7.5c0-3.2-0.6-5.6-1.9-7.4c-1.3-1.8-3.3-2.7-6-2.7s-4.7,0.9-5.9,2.7
		C320.2,79,319.6,81.5,319.6,84.7z"/>
	<path class="st0" d="M359.7,70.8c3.2,0,5.6,0.8,7.2,2.3c1.6,1.6,2.4,4.1,2.4,7.5v17.5h-4.3V81c0-4.3-2-6.5-6-6.5
		c-3,0-5,0.8-6.2,2.5c-1.1,1.7-1.7,4.1-1.7,7.2v13.9h-4.4V71.3h3.5L351,75h0.2c0.9-1.4,2.1-2.4,3.6-3.1
		C356.4,71.2,358,70.8,359.7,70.8z"/>
	<path class="st0" d="M395.2,90.7c0,2.6-1,4.6-2.9,5.9c-1.9,1.3-4.5,2-7.8,2c-1.9,0-3.5-0.1-4.8-0.5c-1.3-0.3-2.5-0.7-3.6-1.2v-4
		c1.1,0.5,2.4,1,3.9,1.5c1.5,0.5,3.1,0.7,4.6,0.7c2.2,0,3.9-0.4,4.9-1.1c1-0.7,1.5-1.7,1.5-2.9c0-0.7-0.2-1.3-0.5-1.8
		c-0.4-0.5-1-1.1-2-1.6c-1-0.5-2.3-1.1-4.1-1.8c-1.7-0.7-3.2-1.3-4.4-2c-1.2-0.7-2.2-1.5-2.9-2.4c-0.7-0.9-1-2.1-1-3.6
		c0-2.3,0.9-4,2.8-5.2c1.8-1.2,4.3-1.8,7.3-1.8c1.6,0,3.2,0.2,4.6,0.5c1.4,0.3,2.7,0.8,4,1.3l-1.5,3.5c-1.1-0.5-2.3-0.9-3.6-1.2
		c-1.2-0.3-2.5-0.5-3.8-0.5c-1.8,0-3.2,0.3-4.1,0.9c-1,0.6-1.4,1.4-1.4,2.4c0,0.8,0.2,1.4,0.7,1.9c0.4,0.5,1.2,1,2.2,1.5
		c1,0.5,2.4,1.1,4.1,1.7c1.7,0.6,3.1,1.3,4.3,2c1.2,0.7,2.1,1.5,2.8,2.4C394.9,88.1,395.2,89.3,395.2,90.7z"/>
	<path class="st0" d="M425,84.7c0,4.4-1.1,7.9-3.4,10.3c-2.2,2.4-5.3,3.6-9.1,3.6c-2.4,0-4.5-0.5-6.3-1.6c-1.8-1.1-3.3-2.7-4.4-4.8
		c-1.1-2.1-1.6-4.6-1.6-7.6c0-4.4,1.1-7.8,3.3-10.2c2.2-2.4,5.3-3.6,9.1-3.6c2.4,0,4.5,0.5,6.4,1.6c1.9,1.1,3.3,2.6,4.4,4.7
		C424.4,79.2,425,81.7,425,84.7z M404.7,84.7c0,3.2,0.6,5.7,1.9,7.5c1.2,1.8,3.2,2.8,6,2.8c2.7,0,4.7-0.9,5.9-2.8
		c1.3-1.9,1.9-4.4,1.9-7.5c0-3.2-0.6-5.6-1.9-7.4c-1.3-1.8-3.3-2.7-6-2.7s-4.7,0.9-5.9,2.7C405.3,79,404.7,81.5,404.7,84.7z"/>
	<path class="st0" d="M444.4,70.8c0.5,0,1,0,1.6,0.1c0.6,0.1,1.1,0.1,1.6,0.2l-0.6,4c-0.4-0.1-0.9-0.2-1.4-0.2
		c-0.5-0.1-1-0.1-1.5-0.1c-1.4,0-2.7,0.4-3.9,1.1c-1.2,0.8-2.2,1.8-2.9,3.1s-1.1,2.9-1.1,4.7v14.3h-4.4V71.3h3.6l0.5,4.9h0.2
		c0.8-1.5,1.9-2.7,3.3-3.8C440.9,71.4,442.6,70.8,444.4,70.8z"/>
	<path class="st0" d="M461.9,70.8c2.3,0,4.2,0.5,5.9,1.5c1.7,1,2.9,2.4,3.8,4.2c0.9,1.8,1.3,3.9,1.3,6.4v2.7h-18.4
		c0.1,3,0.8,5.3,2.3,6.9c1.5,1.6,3.6,2.4,6.2,2.4c1.7,0,3.2-0.2,4.5-0.5c1.3-0.3,2.7-0.8,4.1-1.4v3.9c-1.4,0.6-2.7,1-4,1.3
		c-1.3,0.3-2.9,0.4-4.8,0.4c-2.6,0-4.8-0.5-6.8-1.5c-1.9-1-3.4-2.6-4.5-4.6c-1.1-2-1.6-4.6-1.6-7.6c0-2.9,0.5-5.4,1.5-7.5
		s2.4-3.7,4.2-4.9C457.5,71.4,459.6,70.8,461.9,70.8z M461.9,74.4c-2.1,0-3.8,0.7-5,2c-1.2,1.3-1.9,3.2-2.2,5.6h13.6
		c0-2.3-0.6-4.1-1.6-5.5C465.7,75.1,464.1,74.4,461.9,74.4z"/>
	<path class="st0" d="M489.3,98.6c-3.3,0-6-1.2-8-3.5c-2-2.3-3-5.8-3-10.4s1-8.1,3-10.4c2-2.4,4.7-3.5,8-3.5c2.1,0,3.8,0.4,5.1,1.1
		c1.3,0.8,2.4,1.7,3.2,2.8h0.3c-0.1-0.4-0.1-1.1-0.2-1.9c-0.1-0.9-0.1-1.5-0.1-2V60.1h4.4v38h-3.5l-0.7-3.6h-0.2
		c-0.8,1.1-1.9,2.1-3.2,2.9C493.1,98.2,491.4,98.6,489.3,98.6z M490,95c2.8,0,4.8-0.8,6-2.3c1.2-1.5,1.7-3.9,1.7-7v-0.8
		c0-3.3-0.6-5.9-1.7-7.7c-1.1-1.8-3.1-2.7-6.1-2.7c-2.4,0-4.1,0.9-5.3,2.8c-1.2,1.9-1.8,4.4-1.8,7.6c0,3.2,0.6,5.7,1.8,7.5
		C485.8,94.1,487.6,95,490,95z"/>
	<path class="st0" d="M527.9,60.1v9.2c0,1.1,0,2.2-0.1,3.2c0,1-0.1,1.8-0.2,2.3h0.2c0.8-1.1,1.8-2.1,3.1-2.9c1.3-0.8,3-1.1,5.2-1.1
		c3.3,0,6,1.2,8,3.5c2,2.3,3,5.8,3,10.4s-1,8.1-3,10.4c-2,2.3-4.7,3.5-8,3.5c-2.1,0-3.8-0.4-5.2-1.1c-1.3-0.8-2.4-1.7-3.1-2.8h-0.4
		l-0.9,3.4h-3.2v-38H527.9z M535.5,74.5c-2.9,0-4.8,0.8-5.9,2.5c-1.1,1.6-1.6,4.2-1.6,7.6v0.2c0,3.3,0.5,5.8,1.6,7.6
		c1.1,1.8,3.1,2.6,6,2.6c2.4,0,4.2-0.9,5.4-2.6c1.2-1.8,1.8-4.3,1.8-7.7C542.7,77.9,540.3,74.5,535.5,74.5z"/>
	<path class="st0" d="M549.1,71.3h4.7l5.8,15.2c0.5,1.4,1,2.6,1.4,3.8c0.4,1.2,0.7,2.4,0.9,3.5h0.2c0.2-0.8,0.5-1.9,1-3.3
		c0.4-1.4,0.9-2.7,1.3-4.1l5.5-15.2h4.8L563,101.8c-1,2.5-2.2,4.5-3.7,6s-3.5,2.2-6.1,2.2c-0.8,0-1.5,0-2.1-0.1
		c-0.6-0.1-1.1-0.2-1.5-0.3v-3.5c0.4,0.1,0.8,0.1,1.3,0.2c0.5,0.1,1.1,0.1,1.6,0.1c1.5,0,2.8-0.4,3.7-1.3c0.9-0.9,1.7-2,2.2-3.5
		l1.4-3.5L549.1,71.3z"/>
</g>
<g>
	<g>
		<path class="st2" d="M202.8,478.3c-1.5,0-3.4-0.8-4.5-1.8c-1.5-1.4-1.8-2-3.7-6.1c-0.4,0-0.6,0.1-0.8,0.1s-0.4,0-0.7-0.1v3.3
			c0,1.9,0.4,2.3,2.2,2.7v0.5h-7.9v-0.5c2-0.2,2.5-0.8,2.5-2.7v-8.9c0-1.9-0.4-2.5-2.2-3.1v-0.5l4.7,0.3c1.5-0.3,2.2-0.3,3.1-0.3
			c2.8,0,4.5,1.5,4.5,4c0,0.7-0.1,1.4-0.4,1.9c-0.4,0.9-1,1.5-2.6,2.6c2.4,3.9,3.6,5.6,4.7,6.6c0.8,0.8,1.7,1.2,3,1.3v0.4
			C203.8,478.3,203.4,478.3,202.8,478.3 M193.1,462.2v6.8c0.7,0.3,1,0.3,1.5,0.3c0.3,0,0.5,0,1.2-0.2c0.2-0.2,0.3-0.4,0.4-0.5
			c0.6-0.8,0.8-1.6,0.8-2.7C197.1,463.7,195.8,462.5,193.1,462.2z"/>
		<path class="st2" d="M203.6,476.8v-0.5c0.3-0.1,0.6-0.2,0.8-0.3c0.4-0.3,0.5-0.6,0.6-2.2l0.2-4.7V469c0-0.6-0.1-1.2-0.2-1.6
			c-0.1-0.4-0.4-0.6-1-0.8v-0.5l3.3-0.7l0.8,0.3l-0.2,3v5c0,1.9,0.1,2.2,1.2,2.5v0.5H203.6 M206.7,463.1c-1.1,0-2-0.8-2-1.8
			c0-0.9,0.9-1.7,2-1.7c1.1,0,2,0.8,2,1.7C208.6,462.3,207.7,463.1,206.7,463.1z"/>
		<path class="st2" d="M217.8,477.1L217.8,477.1c-0.9,0-1.3-0.3-1.6-1.1c-1.3,0.9-2,1.2-3.1,1.2c-1.7,0-2.8-1-2.8-2.5
			c0-0.6,0.1-1.1,0.4-1.5c0.3-0.5,0.8-0.8,2.1-1.2l3.3-1.2v-1.5l0-1.3c0-0.9-0.2-1.2-0.9-1.2c-0.8,0-1.3,0.4-1.8,1.6l-0.6,1.3h-0.7
			c-0.8,0-1.3-0.3-1.3-0.9c0-0.5,0.4-1.2,1.2-1.7c1.3-0.9,2.8-1.4,4.6-1.4c1.8,0,2.5,0.7,2.5,2.3v0.3l-0.2,5.3v0.2
			c0,1.3,0.3,1.8,1.7,2.4v0.7C219.4,476.9,218.5,477.1,217.8,477.1 M216.1,471.9l-1.7,0.8c-1,0.4-1.4,0.9-1.4,1.6
			c0,0.8,0.6,1.3,1.5,1.3c0.4,0,0.9-0.1,1.6-0.2V471.9z"/>
		<path class="st2" d="M221.2,476.8v-0.5c1-0.2,1.3-0.6,1.3-2.5l0.2-4.7v-4.5c0-2,0-2.4-0.2-3.1c-0.1-0.4-0.3-0.6-0.8-0.9v-0.5
			l3.6-0.7l0.6,0.5c-0.3,2.1-0.3,2.6-0.3,5.9v7.9c0,1.9,0.3,2.3,1.3,2.5v0.5H221.2"/>
		<path class="st2" d="M232,477.2c-2,0-3.1-1-3.1-2.8l0.2-6.2l-1.2-1.5V466c1-0.4,1.4-0.6,2.1-1.3c0.5-0.4,0.7-0.7,1.1-1.4l1.2,0.5
			l-0.3,2.3l2-0.2c0.6,0,1,0.3,1,0.8c0,0.6-0.5,1.1-1.3,1.1h-1.7v5.7c0,1,0.2,1.5,0.6,1.8c0.4,0.3,0.9,0.4,2.2,0.4l0.2,0.5
			C233.7,477,233.1,477.2,232,477.2"/>
		<path class="st2" d="M243.1,477.1L243.1,477.1c-0.9,0-1.3-0.3-1.6-1.1c-1.3,0.9-2,1.2-3.1,1.2c-1.7,0-2.8-1-2.8-2.5
			c0-0.6,0.1-1.1,0.4-1.5c0.3-0.5,0.8-0.8,2.1-1.2l3.3-1.2v-1.5l0-1.3c0-0.9-0.2-1.2-0.9-1.2c-0.8,0-1.3,0.4-1.8,1.6l-0.6,1.3h-0.7
			c-0.8,0-1.3-0.3-1.3-0.9c0-0.5,0.4-1.2,1.2-1.7c1.3-0.9,2.8-1.4,4.6-1.4c1.8,0,2.5,0.7,2.5,2.3v0.3l-0.2,5.3v0.2
			c0,1.3,0.3,1.8,1.7,2.4v0.7C244.8,476.9,243.9,477.1,243.1,477.1 M241.5,471.9l-1.7,0.8c-1,0.4-1.4,0.9-1.4,1.6
			c0,0.8,0.6,1.3,1.5,1.3c0.4,0,0.9-0.1,1.6-0.2V471.9z"/>
		<path class="st2" d="M251.5,477.1c-1,0-1.7-0.1-4-0.5l-0.3-3.3l0.7-0.2c1.2,1.4,1.6,1.9,2.3,2.4c0.4,0.3,0.9,0.5,1.3,0.5
			c0.8,0,1.4-0.6,1.4-1.4c0-0.2,0-0.4-0.1-0.6c-0.1-0.2-0.3-0.4-0.5-0.5c-0.2-0.1-0.5-0.3-1-0.5l-1.3-0.7c-2-1-2.7-1.9-2.7-3.4
			c0-2,1.6-3.4,4-3.4c1.1,0,1.7,0.1,3.2,0.6l0.3,2.5L254,469c-1-1.2-1.3-1.5-1.8-1.9c-0.3-0.3-0.9-0.5-1.3-0.5
			c-0.8,0-1.4,0.6-1.4,1.4c0,0.7,0.4,1.1,1.5,1.7l2,1c1.7,0.9,2.4,1.6,2.4,3C255.3,475.7,253.8,477.1,251.5,477.1"/>
		<path class="st2" d="M268.5,476.8v-0.5c1.1-0.2,1.3-0.6,1.4-2.5l0.2-4.2v-0.1c0-1.5-0.7-2.3-2.1-2.3c-0.6,0-0.9,0.1-1.8,0.6v6
			c0,1.9,0.1,2.3,1,2.5v0.5h-5.3v-0.5c1-0.2,1.3-0.6,1.3-2.5l0.2-4.7v-0.2c0-1.4-0.3-1.9-1.4-2.3v-0.5l4.2-0.7v1.5
			c1.6-1.2,2.3-1.5,3.8-1.5c2,0,2.9,0.9,2.9,3v5.4c0,1.7,0.2,2.2,1.2,2.5v0.5H268.5"/>
		<path class="st2" d="M282.6,477.1L282.6,477.1c-0.9,0-1.3-0.3-1.6-1.1c-1.3,0.9-2,1.2-3.1,1.2c-1.7,0-2.8-1-2.8-2.5
			c0-0.6,0.1-1.1,0.4-1.5c0.3-0.5,0.8-0.8,2.1-1.2l3.3-1.2v-1.5l0-1.3c0-0.9-0.2-1.2-0.9-1.2c-0.8,0-1.3,0.4-1.8,1.6l-0.6,1.3H277
			c-0.8,0-1.3-0.3-1.3-0.9c0-0.5,0.4-1.2,1.2-1.7c1.3-0.9,2.8-1.4,4.6-1.4c1.8,0,2.5,0.7,2.5,2.3v0.3l-0.2,5.3v0.2
			c0,1.3,0.3,1.8,1.7,2.4v0.7C284.3,476.9,283.4,477.1,282.6,477.1 M281,471.9l-1.7,0.8c-1,0.4-1.4,0.9-1.4,1.6
			c0,0.8,0.6,1.3,1.5,1.3c0.4,0,0.9-0.1,1.6-0.2V471.9z"/>
		<path class="st2" d="M297.8,476.8v-0.5c1-0.4,1.3-0.8,1.3-2.5l0.2-4v-0.2c0-1.6-0.6-2.3-1.9-2.3c-0.6,0-1,0.1-1.9,0.5v6
			c0,1.7,0.2,2.2,1,2.5v0.5h-5.3v-0.5c1.1-0.2,1.3-0.5,1.3-2.5l0.2-4.7v-6.3c0-1.4-0.3-1.8-1.3-2.3v-0.5l3.8-0.7l0.7,0.7l-0.3,6.9
			c1.6-1.2,2.4-1.5,3.8-1.5c0.9,0,1.6,0.2,2.1,0.7c0.6,0.4,0.8,1.1,0.8,2.4v5.4c0,1.9,0.1,2.2,1.2,2.5v0.5H297.8"/>
		<path class="st2" d="M315.3,476.8h-11.5v-0.5c2-0.3,2.5-0.8,2.5-2.7v-8.9c0-2-0.3-2.5-1.8-3v-0.5H315l0.3,3.7l-0.5,0.2
			c-1.1-1.9-1.9-2.5-3.5-2.7l-1.8-0.2v6l1.7-0.1c1.7-0.1,2.1-0.4,2.5-1.9h0.5v5h-0.5c-0.5-1.5-0.9-1.8-2.5-1.9l-1.7-0.1v4
			c0,1.8,0.5,2.4,2.1,2.4c1.8,0,2.9-0.8,4.3-3.2l0.5,0.3L315.3,476.8 M312.7,459.3l-4.7,0.8l-0.2-0.3l4.2-2.5l1.2,0.8L312.7,459.3z"
			/>
		<path class="st2" d="M317.7,476.8v-0.5c0.3-0.1,0.6-0.2,0.8-0.3c0.4-0.3,0.5-0.6,0.6-2.2l0.2-4.7V469c0-0.6-0.1-1.2-0.2-1.6
			c-0.1-0.4-0.4-0.6-1-0.8v-0.5l3.3-0.7l0.8,0.3l-0.2,3v5c0,1.9,0.1,2.2,1.2,2.5v0.5H317.7 M320.7,463.1c-1.1,0-2-0.8-2-1.8
			c0-0.9,0.9-1.7,2-1.7c1.1,0,2,0.8,2,1.7C322.7,462.3,321.8,463.1,320.7,463.1z"/>
		<path class="st2" d="M331.9,469.5c-0.8-0.6-1.5-0.9-2-0.9c-0.4,0-0.7,0.3-1.1,0.8v4.4c0,1.7,0.4,2.1,2.2,2.5v0.5h-6.5v-0.5
			c1.1-0.4,1.3-0.7,1.3-2.5l0.2-5v-0.1c0-1.2-0.3-1.6-1.4-2.1v-0.5l4.2-0.7l-0.1,2.5h0.1c1-1.8,1.7-2.5,2.7-2.5
			c0.8,0,1.3,0.7,1.3,1.7C332.7,468,332.5,468.5,331.9,469.5"/>
		<path class="st2" d="M342.5,470.8h-6.3v0.3c0,1.1,0,1.2,0.2,1.9c0.4,1.5,1.6,2.4,3.4,2.4c0.9,0,1.5-0.1,2.6-0.7l0.3,0.2
			c-0.1,0.4-0.2,0.7-0.3,0.8c-1.2,1.2-2.7,1.7-4.4,1.7c-2.7,0-4.6-2.3-4.6-5.5c0-3.7,2.2-6.3,5.3-6.3c2.5,0,4.1,1.4,4.1,3.4
			C342.8,469.4,342.7,470,342.5,470.8 M339.8,467.4c-0.2-0.5-0.7-0.8-1.3-0.8c-0.6,0-1.2,0.3-1.6,0.8c-0.4,0.5-0.5,0.9-0.7,2h3.5
			l0.3-0.3C340,468.1,340,467.8,339.8,467.4z"/>
		<path class="st2" d="M351.4,477.1L351.4,477.1c-0.9,0-1.3-0.3-1.6-1.1c-1.3,0.9-2,1.2-3.1,1.2c-1.7,0-2.8-1-2.8-2.5
			c0-0.6,0.1-1.1,0.4-1.5c0.3-0.5,0.8-0.8,2.1-1.2l3.3-1.2v-1.5l0-1.3c0-0.9-0.2-1.2-0.9-1.2c-0.8,0-1.3,0.4-1.8,1.6l-0.6,1.3h-0.7
			c-0.8,0-1.3-0.3-1.3-0.9c0-0.5,0.4-1.2,1.2-1.7c1.3-0.9,2.8-1.4,4.6-1.4c1.8,0,2.5,0.7,2.5,2.3v0.3l-0.2,5.3v0.2
			c0,1.3,0.3,1.8,1.7,2.4v0.7C353,476.9,352.1,477.1,351.4,477.1 M349.7,471.9l-1.7,0.8c-1,0.4-1.4,0.9-1.4,1.6
			c0,0.8,0.6,1.3,1.5,1.3c0.4,0,0.9-0.1,1.6-0.2V471.9z"/>
		<path class="st2" d="M361.6,476.8v-0.5c1.1-0.2,1.3-0.6,1.4-2.5l0.2-4.2v-0.1c0-1.5-0.7-2.3-2.1-2.3c-0.6,0-0.9,0.1-1.8,0.6v6
			c0,1.9,0.1,2.3,1,2.5v0.5H355v-0.5c1-0.2,1.3-0.6,1.3-2.5l0.2-4.7v-0.2c0-1.4-0.3-1.9-1.4-2.3v-0.5l4.2-0.7v1.5
			c1.6-1.2,2.3-1.5,3.8-1.5c2,0,2.9,0.9,2.9,3v5.4c0,1.7,0.2,2.2,1.2,2.5v0.5H361.6"/>
		<path class="st2" d="M375,476.8v-0.5c1.1-0.2,1.3-0.6,1.4-2.5l0.2-4.2v-0.1c0-1.5-0.7-2.3-2.1-2.3c-0.6,0-0.9,0.1-1.8,0.6v6
			c0,1.9,0.1,2.3,1,2.5v0.5h-5.3v-0.5c1-0.2,1.3-0.6,1.3-2.5l0.2-4.7v-0.2c0-1.4-0.3-1.9-1.4-2.3v-0.5l4.2-0.7v1.5
			c1.6-1.2,2.3-1.5,3.8-1.5c2,0,2.9,0.9,2.9,3v5.4c0,1.7,0.2,2.2,1.2,2.5v0.5H375"/>
		<path class="st2" d="M201.9,497.2v1.7l0.3,2.3h-0.8c-0.3,0-0.4,0-2.3,0.6c-0.9,0.3-2,0.4-3.2,0.4c-2.5,0-3.9-0.5-5.3-1.8
			c-1.6-1.6-2.5-3.7-2.5-6.1c0-2.3,0.8-4.4,2.2-5.9c1.5-1.6,3.4-2.3,6-2.3c1.6,0,2.7,0.2,5.1,1l0.2,3.7l-0.5,0.3c-1.5-3-2.8-4-5.2-4
			c-3.1,0-5.2,2.8-5.2,7c0,4.1,2.4,7,5.8,7c2.3,0,3.4-0.9,3.4-2.7v-1c0-1.7-0.5-2.2-2.3-2.6v-0.6h6.2v0.5
			C202.3,495.2,201.9,495.6,201.9,497.2"/>
		<path class="st2" d="M210.5,502.2c-3,0-4.7-1.9-4.7-5.3c0-4,2.3-6.5,5.9-6.5c3,0,4.7,1.9,4.7,5.3
			C216.3,499.8,214.1,502.2,210.5,502.2 M211,491.4c-1.8,0-3,1.9-3,4.7c0,3,1.3,5.1,3.2,5.1c1.8,0,3-2,3-4.8
			C214.1,493.6,212.8,491.4,211,491.4z"/>
		<path class="st2" d="M227,491.5c-0.3,0.2-0.6,0.7-0.8,1.2l-3.7,8.5c-0.3,0.8-0.7,1.2-1,1.2h-0.1l-3.1-9.7
			c-0.2-0.7-0.6-1.1-1.2-1.3v-0.5h4.3v0.5l-0.5,0.1c-0.6,0.2-0.8,0.4-0.8,0.9c0,0.2,0.1,0.6,0.2,1.1l1.8,5.7l2-5.4
			c0.2-0.6,0.3-1.1,0.3-1.4c0-0.6-0.5-0.9-1.5-1v-0.6h4.2v0.5C227.2,491.4,227.1,491.5,227,491.5"/>
		<path class="st2" d="M232.4,502.2c-2.5,0-4.3-2.2-4.3-5.4c0-3.8,2.1-6.2,5.4-6.2c2.2,0,3.5,1.1,3.5,3c0,0.5,0,1.1-0.2,1.8H230v0.6
			c0,2.7,1.3,4.4,3.6,4.4c0.9,0,1.5-0.1,3-0.7l0.5,0.1C236.8,501,234.6,502.2,232.4,502.2 M235.2,493.5c0-1-0.9-1.8-2.1-1.8
			c-1.4,0-2.4,1-3,2.8h4.7l0.3-0.4V493.5z"/>
		<path class="st2" d="M245.9,493.2l-0.2,0.3c-0.7-0.3-1.3-0.5-1.7-0.5c-0.7,0-1.2,0.5-1.8,1.5v4.2c0,1.9,0.5,2.4,2.7,2.6v0.6h-6.2
			v-0.6c1.2-0.3,1.5-0.7,1.5-2.6l0.1-4c0-0.1,0-0.3,0-0.4c0-1.6-0.2-2-1.4-2.6v-0.5l3.2-0.7v2.8c1.7-2.3,2.3-2.6,3.5-2.6
			c0.4,0,0.8,0.3,0.8,0.8C246.5,491.9,246.2,492.5,245.9,493.2"/>
		<path class="st2" d="M253.8,501.9v-0.6c1.3-0.2,1.6-0.6,1.7-2.6l0.2-4v-0.1c0-1.5-0.8-2.4-2-2.4c-0.8,0-1.4,0.2-2.9,0.9v5.7
			c0,0.9,0.1,1.5,0.2,1.7c0.2,0.4,0.6,0.7,1.5,0.8v0.6h-5.2v-0.6c1.2-0.3,1.5-0.7,1.5-2.6l0.1-4c0-0.1,0-0.2,0-0.3
			c0-1.6-0.3-2.2-1.4-2.7v-0.5l2.9-0.8l0.2,0.1v1.7c2.1-1.3,3.1-1.7,4.2-1.7c0.6,0,1.4,0.3,1.8,0.7c0.4,0.4,0.7,1.2,0.7,2.3v5.2
			c0,2,0.1,2.2,1.5,2.6v0.6H253.8"/>
		<path class="st2" d="M273.7,501.9v-0.6c1.3-0.2,1.6-0.6,1.7-2.6l0.2-4v-0.2c0-1.5-0.8-2.4-1.9-2.4c-0.8,0-1.4,0.2-2.9,1.2v5.4
			c0,0.9,0.1,1.5,0.2,1.7c0.2,0.4,0.6,0.7,1.5,0.8v0.6H267v-0.6c1.4-0.2,1.6-0.6,1.7-2.6l0.2-4v-0.2c0-1.5-0.7-2.4-1.9-2.4
			c-0.7,0-1.1,0.1-2.9,0.9v5.7c0,0.9,0.1,1.5,0.2,1.7c0.2,0.4,0.6,0.7,1.5,0.8v0.6h-5.2v-0.6c1.2-0.3,1.5-0.7,1.5-2.6l0.1-4
			c0-0.1,0-0.3,0-0.4c0-1.6-0.2-2-1.4-2.6v-0.5l3-0.7l0.2,0.2v1.6c2.1-1.3,3.1-1.7,4.4-1.7c1.3,0,1.8,0.4,2.3,2c1.9-1.6,2.9-2,4.3-2
			c0.8,0,1.5,0.3,1.9,0.8c0.3,0.4,0.5,1.1,0.5,2.2v5.2c0,2,0.1,2.2,1.5,2.6v0.6H273.7"/>
		<path class="st2" d="M284.8,502.2c-2.5,0-4.3-2.2-4.3-5.4c0-3.8,2.1-6.2,5.4-6.2c2.2,0,3.5,1.1,3.5,3c0,0.5,0,1.1-0.2,1.8h-6.9
			v0.6c0,2.7,1.3,4.4,3.6,4.4c0.9,0,1.5-0.1,3-0.7l0.5,0.1C289.2,501,287,502.2,284.8,502.2 M287.6,493.5c0-1-0.9-1.8-2.1-1.8
			c-1.4,0-2.4,1-3,2.8h4.7l0.3-0.4V493.5z"/>
		<path class="st2" d="M297.5,501.9v-0.6c1.3-0.2,1.6-0.6,1.7-2.6l0.2-4v-0.1c0-1.5-0.8-2.4-2-2.4c-0.8,0-1.4,0.2-2.9,0.9v5.7
			c0,0.9,0.1,1.5,0.2,1.7c0.2,0.4,0.6,0.7,1.5,0.8v0.6H291v-0.6c1.2-0.3,1.5-0.7,1.5-2.6l0.1-4c0-0.1,0-0.2,0-0.3
			c0-1.6-0.3-2.2-1.4-2.7v-0.5l2.9-0.8l0.2,0.1v1.7c2.1-1.3,3.1-1.7,4.2-1.7c0.6,0,1.4,0.3,1.8,0.7c0.4,0.4,0.7,1.2,0.7,2.3v5.2
			c0,2,0.1,2.2,1.5,2.6v0.6H297.5"/>
		<path class="st2" d="M307.9,502.1c-1.9,0-2.7-0.8-2.6-2.7l0.1-6.6l-1.1-1.3l0.1-0.7c0.7-0.4,0.9-0.6,1.3-0.9
			c0.5-0.5,0.7-0.8,1.1-1.6l0.7,0.2l-0.2,2.5l3-0.2c0.4,0,0.7,0.2,0.7,0.6c0,0.5-0.5,0.9-1.2,0.9h-2.5v5.9c0,1.6,0.6,2.5,1.6,2.5
			c0.6,0,1.3-0.2,2.1-0.6l0.2,0.5C310,501.9,309.4,502.1,307.9,502.1"/>
		<path class="st2" d="M321.4,502.2c-3,0-4.7-1.9-4.7-5.3c0-4,2.3-6.5,5.9-6.5c3,0,4.7,1.9,4.7,5.3
			C327.2,499.8,325,502.2,321.4,502.2 M321.9,491.4c-1.8,0-3,1.9-3,4.7c0,3,1.3,5.1,3.2,5.1c1.8,0,3-2,3-4.8
			C325.1,493.6,323.7,491.4,321.9,491.4z"/>
		<path class="st2" d="M338.1,486.9c-1.1-1-1.8-1.4-2.7-1.4c-0.9,0-1.6,0.5-2.2,1.5c-0.4,0.8-0.5,1.4-0.6,3.1l-0.1,1l3-0.2
			c0.4,0,0.7,0.2,0.7,0.6c0,0.7-0.2,0.8-1,0.8h-2.7l0.2,6.3c0,0.8,0.1,1.3,0.2,1.5c0.2,0.6,0.9,0.9,2.2,1.1v0.6h-6v-0.6
			c1.3-0.2,1.7-0.8,1.7-2.6V493l-1.5-1.1v-0.3l1.6-1c0.1-2.4,0.5-3.5,1.6-4.6c0.9-0.9,2.2-1.4,3.8-1.4c2,0,3.2,0.4,3.2,1.1
			C339.4,486.2,339,486.6,338.1,486.9"/>
		<path class="st2" d="M341.5,501.9v-0.5c1.9-0.3,2.3-0.8,2.3-2.7v-9.2c0-1.9-0.4-2.3-2.2-2.7v-0.5h6.5v0.5
			c-1.9,0.3-2.4,0.8-2.4,2.7v9.2c0,1.9,0.4,2.4,2.4,2.7v0.5H341.5"/>
		<path class="st2" d="M356.7,493.2l-0.2,0.3c-0.7-0.3-1.3-0.5-1.7-0.5c-0.7,0-1.2,0.5-1.8,1.5v4.2c0,1.9,0.5,2.4,2.7,2.6v0.6h-6.2
			v-0.6c1.2-0.3,1.5-0.7,1.5-2.6l0.1-4c0-0.1,0-0.3,0-0.4c0-1.6-0.2-2-1.4-2.6v-0.5l3.2-0.7v2.8c1.7-2.3,2.3-2.6,3.5-2.6
			c0.4,0,0.8,0.3,0.8,0.8C357.3,491.9,357.1,492.5,356.7,493.2"/>
		<path class="st2" d="M362.6,502.2c-2.5,0-4.3-2.2-4.3-5.4c0-3.8,2.1-6.2,5.4-6.2c2.2,0,3.5,1.1,3.5,3c0,0.5,0,1.1-0.2,1.8h-6.9
			v0.6c0,2.7,1.3,4.4,3.6,4.4c0.9,0,1.5-0.1,3-0.7l0.5,0.1C366.9,501,364.7,502.2,362.6,502.2 M365.3,493.5c0-1-0.9-1.8-2.1-1.8
			c-1.4,0-2.4,1-3,2.8h4.7l0.3-0.4V493.5z"/>
		<path class="st2" d="M368.5,501.9v-0.6c1.3-0.2,1.6-0.6,1.7-2.6l0.2-4.7v-4.7c0-2.5-0.2-3.1-1.2-3.5v-0.7l3-0.5l0.3,0.3l-0.3,6.2
			v7.5c0,0.9,0,1.5,0.2,1.7c0.2,0.4,0.6,0.7,1.5,0.8v0.6H368.5"/>
		<path class="st2" d="M383.7,502c-0.4,0-0.7,0.1-1,0.1c-1,0-1.3-0.3-1.6-1.2c-1.5,1-2.1,1.3-3.4,1.3c-1.6,0-2.6-0.9-2.6-2.3
			c0-1.2,0.7-1.9,2.5-2.6l3.7-1.4v-2c0-1.6-0.4-2-1.7-2c-1.2,0-1.7,0.4-2.3,2c-0.1,0.2-0.2,0.5-0.3,0.8c-0.9-0.1-1.3-0.4-1.3-1
			c0-0.8,1.3-2,3-2.6c0.7-0.3,1.8-0.5,2.4-0.5c1.5,0,2.2,0.7,2.2,2.2v0.5L383,499v0.2c0,1.2,0.3,1.6,2,2.2v0.5L383.7,502
			 M378.8,497.7c-1.1,0.5-1.6,1-1.6,1.8c0,0.7,0.7,1.4,1.4,1.4c0.4,0,1.1-0.1,1.8-0.4c0.2,0,0.4-0.1,0.7-0.2l0.2-3.5L378.8,497.7z"
			/>
		<path class="st2" d="M392.6,501.9v-0.6c1.3-0.2,1.6-0.6,1.7-2.6l0.2-4v-0.1c0-1.5-0.8-2.4-2-2.4c-0.8,0-1.4,0.2-2.9,0.9v5.7
			c0,0.9,0.1,1.5,0.2,1.7c0.2,0.4,0.6,0.7,1.5,0.8v0.6h-5.2v-0.6c1.2-0.3,1.5-0.7,1.5-2.6l0.1-4c0-0.1,0-0.2,0-0.3
			c0-1.6-0.3-2.2-1.4-2.7v-0.5l2.9-0.8l0.2,0.1v1.7c2.1-1.3,3.1-1.7,4.2-1.7c0.6,0,1.4,0.3,1.8,0.7c0.4,0.4,0.7,1.2,0.7,2.3v5.2
			c0,2,0.1,2.2,1.5,2.6v0.6H392.6"/>
		<path class="st2" d="M407.5,502.2l-0.3-0.3v-1.2c-1.3,1.1-2.2,1.5-3.5,1.5c-2.5,0-4.2-2.2-4.2-5.4c0-3.6,2.3-6.3,5.4-6.3
			c0.8,0,1.2,0.1,2.3,0.5v-1.8c0-2.5-0.4-3.2-1.9-3.5v-0.6l3.8-0.4l0.3,0.3l-0.3,5.9v7.9c0,1.5,0.3,1.9,1.5,2.3v0.6L407.5,502.2
			 M407.2,494.2c0-1.6-0.9-2.6-2.2-2.6c-2,0-3.5,1.9-3.5,4.3c0,2.8,1.5,4.7,3.7,4.7c0.8,0,1.1-0.1,2-0.6V494.2z"/>
		<path class="st2" d="M164.5,426.6c-0.3,18.4-0.5,37.3-0.5,56.7s0.2,38.3,0.5,56.7c0.2,0,0.3,0,0.5,0c0.2,0,0.3,0,0.5,0
			c0.3-18.4,0.5-37.3,0.5-56.7s-0.2-38.3-0.5-56.7c-0.2,0-0.3,0-0.5,0C164.8,426.6,164.6,426.6,164.5,426.6"/>
		<path class="st3" d="M107.3,450.4c0.1,0,0.1,0,0.2,0c0.5,0,0.9-0.4,1-0.8c0.1-0.5-0.3-1.1-0.8-1.2c-0.6-0.1-1.1,0.3-1.2,0.8
			C106.4,449.8,106.8,450.3,107.3,450.4 M107.5,448.9C107.5,448.9,107.5,448.9,107.5,448.9c0.3,0.1,0.5,0.3,0.5,0.6
			c0,0.3-0.3,0.4-0.5,0.4c-0.3,0-0.4-0.3-0.4-0.6C107.1,449.1,107.3,448.9,107.5,448.9z M134.1,455c0.1,0,0.1,0,0.2,0
			c0.5,0,0.9-0.4,1-0.8c0.1-0.5-0.3-1.1-0.8-1.2c-0.6-0.1-1.1,0.3-1.2,0.8C133.2,454.4,133.6,454.9,134.1,455z M134.3,453.6
			C134.3,453.6,134.4,453.6,134.3,453.6c0.3,0.1,0.5,0.3,0.5,0.6c0,0.3-0.3,0.4-0.5,0.4c-0.3,0-0.4-0.3-0.4-0.6
			C133.9,453.7,134.1,453.6,134.3,453.6z M125.6,456.9c0.1,0,0.1,0,0.2,0c0.5,0,0.9-0.4,1-0.8c0.1-0.5-0.3-1.1-0.8-1.2
			c-0.6-0.1-1.1,0.3-1.2,0.8C124.7,456.2,125,456.8,125.6,456.9z M125.7,455.4C125.8,455.4,125.8,455.4,125.7,455.4
			c0.3,0.1,0.5,0.3,0.5,0.6c0,0.2-0.2,0.4-0.5,0.4c0,0-0.1,0-0.1,0c-0.3,0-0.4-0.3-0.4-0.6C125.3,455.5,125.5,455.4,125.7,455.4z
			 M129.9,456.1c0.1,0,0.1,0,0.2,0c0.5,0,0.9-0.4,1-0.8c0-0.3,0-0.5-0.2-0.8c-0.2-0.2-0.4-0.4-0.6-0.4c-0.5-0.1-1.1,0.3-1.2,0.8
			C129,455.5,129.4,456,129.9,456.1z M130.1,454.7C130.1,454.7,130.1,454.7,130.1,454.7c0.2,0,0.3,0.1,0.4,0.2
			c0.1,0.1,0.1,0.2,0.1,0.4c0,0.3-0.3,0.4-0.5,0.4c-0.3,0-0.4-0.3-0.4-0.6C129.7,454.8,129.8,454.7,130.1,454.7z M136.9,456.2
			c-0.1,0.6,0.3,1.1,0.8,1.2c0.1,0,0.1,0,0.2,0c0.5,0,0.9-0.4,1-0.8c0.1-0.5-0.3-1.1-0.8-1.2C137.5,455.3,137,455.6,136.9,456.2z
			 M137.9,455.9C138,455.9,138,455.9,137.9,455.9c0.3,0.1,0.5,0.3,0.5,0.6c0,0.2-0.2,0.4-0.5,0.4c0,0-0.1,0-0.1,0
			c-0.3,0-0.4-0.3-0.4-0.6C137.5,456,137.7,455.9,137.9,455.9z M114.1,450.9c0.1,0,0.1,0,0.2,0c0.5,0,0.9-0.4,1-0.8
			c0.1-0.5-0.3-1.1-0.8-1.2c-0.5-0.1-1.1,0.3-1.2,0.8C113.2,450.3,113.6,450.8,114.1,450.9z M114.3,449.4
			C114.3,449.4,114.3,449.4,114.3,449.4c0.3,0.1,0.5,0.3,0.5,0.6c0,0.3-0.3,0.4-0.5,0.4c-0.3,0-0.4-0.3-0.4-0.6
			C113.9,449.6,114.1,449.4,114.3,449.4z M117.6,453.7c0.1,0,0.1,0,0.2,0c0.5,0,0.8-0.3,0.9-0.8c0.1-0.5-0.3-1-0.8-1.1
			c-0.5-0.1-1,0.3-1.1,0.8C116.8,453.1,117.1,453.6,117.6,453.7z M117.8,452.3C117.8,452.3,117.8,452.3,117.8,452.3
			c0.3,0,0.5,0.3,0.4,0.5c0,0.2-0.3,0.4-0.5,0.4c-0.2,0-0.4-0.3-0.4-0.5C117.4,452.5,117.6,452.3,117.8,452.3z M111.1,447.6
			c0.1,0,0.1,0,0.2,0c0.5,0,0.9-0.4,1-0.8c0.1-0.5-0.3-1.1-0.8-1.2c-0.6-0.1-1.1,0.3-1.2,0.8C110.2,447,110.5,447.5,111.1,447.6z
			 M111.2,446.1C111.3,446.1,111.3,446.1,111.2,446.1c0.3,0.1,0.5,0.3,0.5,0.6c0,0.2-0.2,0.4-0.5,0.4c0,0-0.1,0-0.1,0
			c-0.3,0-0.4-0.3-0.4-0.6C110.8,446.3,111,446.1,111.2,446.1z M99.8,515.5c1.6,0,3-1.2,3.3-2.8c0.3-1.8-0.9-3.6-2.7-3.9
			c-0.2,0-0.4-0.1-0.6-0.1c-1.6,0-3,1.2-3.3,2.8c-0.3,1.8,0.9,3.6,2.7,3.9C99.4,515.4,99.6,515.5,99.8,515.5z M97.2,511.6
			c0.2-1.3,1.3-2.3,2.7-2.3c0.2,0,0.3,0,0.5,0c1.5,0.3,2.5,1.7,2.2,3.2c-0.3,1.5-1.6,2.5-3.1,2.2C97.9,514.5,96.9,513.1,97.2,511.6z
			 M99.8,514.4c1.1,0,2-0.8,2.2-1.9c0.2-1.2-0.6-2.4-1.8-2.6c-1.3-0.2-2.4,0.6-2.6,1.8c-0.2,1.2,0.6,2.4,1.8,2.6
			C99.6,514.4,99.7,514.4,99.8,514.4z M98.1,511.8c0.1-0.8,0.9-1.4,1.7-1.4c0.1,0,0.2,0,0.3,0c0.9,0.2,1.6,1.1,1.4,2
			c-0.2,0.9-1,1.6-2,1.4C98.6,513.6,98,512.7,98.1,511.8z M103,454.4c-1.2-0.2-2.4,0.6-2.6,1.8c-0.2,1.2,0.6,2.4,1.8,2.6
			c0.1,0,0.3,0,0.4,0c1.1,0,2-0.8,2.2-1.9C105,455.8,104.2,454.6,103,454.4z M104.3,457c-0.2,0.9-1,1.6-2,1.4
			c-0.9-0.2-1.6-1.1-1.4-2c0.1-0.8,0.9-1.4,1.7-1.4c0.1,0,0.2,0,0.3,0C103.8,455.1,104.5,456,104.3,457z M121.3,504.7
			c0.5,0,0.9-0.4,0.9-0.9s-0.4-0.9-0.9-0.9c-0.5,0-0.9,0.4-0.9,0.9S120.8,504.7,121.3,504.7z M121.3,503.4c0.2,0,0.3,0.2,0.3,0.4
			s-0.2,0.4-0.3,0.4c-0.2,0-0.3-0.2-0.3-0.4C121,503.6,121.1,503.4,121.3,503.4z M118.3,501.7c-0.5,0-0.9,0.4-0.9,0.9
			c0,0.5,0.4,0.9,0.9,0.9c0.5,0,0.9-0.4,0.9-0.9C119.2,502.1,118.8,501.7,118.3,501.7z M118.3,502.9c-0.2,0-0.3-0.2-0.3-0.4
			c0-0.2,0.2-0.4,0.3-0.4c0.2,0,0.3,0.2,0.3,0.4C118.7,502.8,118.5,502.9,118.3,502.9z M124.2,504.1c-0.5,0-0.9,0.4-0.9,0.9
			c0,0.5,0.4,0.9,0.9,0.9c0.5,0,0.9-0.4,0.9-0.9C125.1,504.5,124.7,504.1,124.2,504.1z M124.2,505.3c-0.2,0-0.3-0.2-0.3-0.4
			c0-0.2,0.2-0.4,0.3-0.4c0.2,0,0.3,0.2,0.3,0.4C124.6,505.1,124.4,505.3,124.2,505.3z M134.2,478.5c-0.5,0-0.8,0.4-0.8,0.8
			c0,0.5,0.4,0.8,0.8,0.8c0.5,0,0.8-0.4,0.8-0.8C135,478.9,134.6,478.5,134.2,478.5z M134.2,479.6c-0.2,0-0.3-0.1-0.3-0.3
			c0-0.2,0.1-0.3,0.3-0.3c0.2,0,0.3,0.1,0.3,0.3C134.5,479.5,134.3,479.6,134.2,479.6z M131.5,477.4c-0.5,0-0.8,0.4-0.8,0.8
			c0,0.5,0.4,0.8,0.8,0.8s0.8-0.4,0.8-0.8C132.3,477.8,131.9,477.4,131.5,477.4z M131.5,478.5c-0.2,0-0.3-0.1-0.3-0.3
			c0-0.2,0.1-0.3,0.3-0.3c0.2,0,0.3,0.1,0.3,0.3C131.8,478.4,131.6,478.5,131.5,478.5z M128.8,476.3c-0.5,0-0.8,0.4-0.8,0.8
			s0.4,0.8,0.8,0.8c0.5,0,0.8-0.4,0.8-0.8S129.2,476.3,128.8,476.3z M128.8,477.4c-0.2,0-0.3-0.1-0.3-0.3c0-0.2,0.1-0.3,0.3-0.3
			s0.3,0.1,0.3,0.3C129,477.3,128.9,477.4,128.8,477.4z M91,495.9c0.2,0.3,0.2,0.8-0.1,1c-0.1,0.1-0.3,0.1-0.4,0.1c0,0-0.1,0-0.1,0
			c-0.2,0-0.4-0.1-0.5-0.3c-0.2-0.3-0.2-0.8,0.1-1c0.2-0.1,0.3-0.2,0.5-0.1C90.7,495.6,90.9,495.7,91,495.9z M107.8,517
			c-0.1-0.1-0.2-0.1-0.3-0.1c-0.1,0-0.2,0.1-0.2,0.2l-3.5,7.5c-0.1,0.1,0,0.3,0.1,0.3c0.1,0,0.1,0.1,0.2,0.1c0.1,0,0.1,0,0.2-0.1
			c0.7-0.5,1.8-1.5,2.4-2.1v0c0.8-0.8,2.1-2.6,2.6-3.3c0.1-0.1,0.1-0.2,0-0.3L107.8,517z M106.2,522.4c-0.4,0.4-0.9,0.9-1.4,1.3
			l2.7-5.9l1.1,1.6C108.1,520.1,106.9,521.7,106.2,522.4z M141,460c0.8-2.9,0-4.9-0.9-6.1c-0.6-0.8-1.5-1.5-1.9-1.7v0
			c-3.3-2.2-7.3-0.7-7.4-0.7c-2.1,1.3-4.3,1.7-6.6,1.1c-6.1-1.6-10.9-9.4-11.8-11l-0.5-0.6c-0.1-0.2-0.3-0.3-0.6-0.3L110,440
			c-0.3-0.2-0.7-0.2-1,0l-0.1,0.1c0,0,0,0,0,0c-0.6-0.1-1.4,0.1-2.1,0.6c-0.8,0.5-1.5,1.3-1.4,2.1l-1.5,1.2c-0.5,0-1.1,0.2-1.7,0.6
			c-0.6,0.4-1.3,1-1.4,1.7l-1,0.8l-0.2,0.1l0,0.1c-0.1,0.1-0.1,0.2-0.1,0.3c0,0.1,0,0.2,0,0.2l0,0.3l0.1,0.1
			c0.1,0.2,0.9,1.7,1.4,2.7c-1.2,1.1-2.9,2.8-4.7,5.1c-1,0-1.8,0.7-2,1.6c-0.1,0.4-0.1,0.7,0,1.1c-3,4.5-5.2,9.6-6.5,15
			c0,0-0.1,0.2-0.1,0.5c-0.8,3.5-1.2,7.3-1.2,11c0,0.1,0,1.7,0,2.1c0,0.4-0.4,9.1,3,18.3c0,0.2,0,0.5,0.1,0.7
			c0.1,0.3,0.3,1.1,0.9,1.6c1.3,3,3,5.8,4.9,8.2c1.4,1.6,3.3,4.7,3,6.5c-0.5-0.2-1-0.2-1.4-0.1c-0.8,0.2-1.5,0.7-2,1.7
			c-0.4,0.8-0.5,2.5,0.6,3.6c0.8,0.8,2,1,3.4,0.5c0,0,0,0.1,0,0.1c0.2,0.3,0.4,0.5,0.8,0.5c0.2,0,0.5,0,0.7,0
			c2.6,0,6.8-1.6,11.8-8.9c1.7,0.3,3.3,0.5,4.5,0.7l2,0.3c0.8,0.3,2.6,0.2,3.6-2.2l20-51.6c0.3-0.5,0.4-1.1,0.5-1.7
			C142.8,463.5,142.3,461.5,141,460z M111,442.5c0.2,0.4,5.5,9.8,12.7,11.6c2.7,0.7,5.3,0.2,7.7-1.3c0,0,3.3-1.1,6,0.6
			c0.1,0.1,3.3,1.6,2.2,5.9c-0.1-0.1-0.2-0.2-0.3-0.3c0.4-1,0-1.8,0-1.8c0-0.1-0.1-0.1-0.2-0.1c-0.1,0-0.2,0-0.2,0
			c-0.2,0.2-0.5,0.3-0.8,0.3c-0.7,0-1.3-0.6-1.3-1.3c0-0.4,0.2-0.7,0.4-1c0.1-0.1,0.1-0.1,0.1-0.2c0-0.1,0-0.2-0.1-0.2L136,454
			c-0.1-0.1-0.2-0.1-0.3,0c-0.1,0-0.1,0.1-0.2,0.2c-0.1,0.6-0.7,1-1.3,1c-0.7,0-1.2-0.5-1.3-1.2c0-0.1-0.1-0.2-0.1-0.2
			c-0.1,0-0.2,0-0.2,0l-1.1,0.5c-0.1,0.1-0.2,0.2-0.1,0.3c0,0.1,0,0.2,0,0.3c0,0.7-0.6,1.3-1.3,1.3c-0.6,0-1.1-0.4-1.3-1
			c0-0.1-0.1-0.1-0.1-0.2c-0.1,0-0.1,0-0.2,0l-1.2,0.4c-0.1,0-0.2,0.1-0.2,0.3c0,0.7-0.6,1.3-1.3,1.3c-0.7,0-1.3-0.6-1.3-1.3
			c0-0.1,0-0.3,0.1-0.4c0-0.1,0-0.2,0-0.2c0-0.1-0.1-0.1-0.2-0.1l-1-0.2c-0.1,0-0.2,0-0.2,0.1c-0.1,0.1-0.1,0.1-0.1,0.2
			c0,0.9-0.8,1.1-1.2,1.1c0,0,0,0-0.1,0c0.5,0,0.8-0.4,0.9-0.8c0.1-0.5-0.3-1.1-0.8-1.2c-0.5-0.1-1.1,0.3-1.2,0.8
			c0,0.3,0,0.5,0.2,0.7c-0.2-0.2-0.3-0.5-0.3-0.9c0-0.2,0-0.4,0.1-0.6c0-0.1,0-0.1,0-0.2c0-0.1-0.1-0.1-0.2-0.1l-1.2-0.4
			c-0.1,0-0.2,0-0.3,0.1c-0.2,0.4-0.7,0.6-1.1,0.6c0,0-0.1,0-0.1,0l-0.7-0.3c-0.3-0.2-0.5-0.6-0.5-1c0-0.2,0.1-0.5,0.2-0.7
			c0.1-0.1,0-0.3-0.1-0.4l-1.2-0.8c-0.1-0.1-0.2-0.1-0.3,0c-0.2,0.2-0.5,0.3-0.8,0.3c-0.7,0-1.3-0.6-1.3-1.3c0-0.4,0.1-0.7,0.4-1
			c0.1-0.1,0.1-0.2,0-0.4l-0.8-1.1c0-0.1-0.1-0.1-0.2-0.1c-0.1,0-0.2,0-0.2,0.1c-0.2,0.3-0.6,0.4-0.9,0.4c-0.7,0-1.3-0.6-1.3-1.3
			c0,0,0-0.1,0-0.1l0,0h0c0,0,0,0,0,0l0,0c0,0-0.1-0.1-0.1-0.1h0c0,0-0.1,0-0.1,0h0c0,0-0.1,0-0.1,0h0l0,0h0c0,0,0,0,0,0l-1.7,1.4
			c-0.1,0.1-0.1,0.1-0.1,0.2c0,0.1,0,0.2,0.1,0.2c0,0,0.8,0.6,0.9,1.4c0,0.4-0.2,0.9-0.7,1.3c-0.1,0.1-0.1,0.2-0.1,0.3c0,0,0,0,0,0
			l0,0.1c1.7,2.2,1.9,2.3,2,2.3c0.1,0,0.1,0,0.2,0c0.1,0,0.2-0.1,0.3-0.2c0.2-0.5,0.7-0.9,1.2-0.9c0,0,0.1,0,0.1,0
			c-0.5,0-0.9,0.3-1,0.8c-0.1,0.5,0.3,1.1,0.8,1.2c0.1,0,0.1,0,0.2,0c0.5,0,0.9-0.4,1-0.8c0.1-0.3-0.1-0.7-0.3-0.9
			c0.3,0.2,0.5,0.6,0.5,1c0,0.3-0.1,0.7-0.4,0.9c-0.1,0.1-0.1,0.1-0.1,0.2c0,0.1,0.1,0.2,0.1,0.2l1.7,1c0.1,0,0.2,0.1,0.3,0
			c0.1,0,0.1-0.1,0.1-0.2c0-0.4,0.3-0.7,0.6-0.9c-0.2,0.2-0.3,0.4-0.4,0.6c-0.1,0.5,0.3,1.1,0.8,1.2c0.1,0,0.1,0,0.2,0
			c0.5,0,0.9-0.4,1-0.8c0.1-0.4-0.1-0.8-0.4-1c0.4,0.2,0.7,0.6,0.7,1.1c0,0.3-0.1,0.6-0.3,0.8c-0.1,0.1-0.1,0.2,0,0.2
			c0,0.1,0.1,0.1,0.2,0.2l1.8,0.6c0.1,0,0.2,0,0.2,0c0.1,0,0.1-0.1,0.1-0.2c0-0.6,0.4-1.1,0.9-1.2c-0.3,0.1-0.5,0.4-0.5,0.7
			c-0.1,0.5,0.3,1.1,0.8,1.2c0.1,0,0.1,0,0.2,0c0.5,0,0.9-0.4,1-0.8c0-0.2,0-0.5-0.1-0.6c0.2,0.2,0.3,0.5,0.3,0.8
			c0,0.2-0.1,0.5-0.2,0.6c0,0.1-0.1,0.2,0,0.2c0,0.1,0.1,0.1,0.2,0.2c0,0,0.4,0.1,0.9,0.2c0,0.1-0.1,0.2-0.1,0.3c0,0,0,0,0,0
			c-0.2,0-0.4,0-0.7,0c-0.1-0.3-0.3-0.6-0.6-0.6c-0.4-0.1-0.8,0.2-0.9,0.6c-0.2,0-0.4,0-0.6-0.1c0-0.1-0.1-0.2-0.1-0.3
			c-0.1-0.2-0.3-0.3-0.5-0.3c-0.3-0.1-0.6,0.1-0.8,0.4c-0.3-0.1-0.5-0.1-0.8-0.2c0,0,0,0,0,0c0.1-0.4-0.2-0.8-0.6-0.9
			c-0.4-0.1-0.7,0.2-0.8,0.5c-0.2-0.1-0.4-0.1-0.6-0.2c0,0,0-0.1,0-0.1c0.1-0.4-0.2-0.8-0.6-0.9c-0.3-0.1-0.6,0.1-0.8,0.4
			c-0.3-0.1-0.6-0.3-0.9-0.5c0,0,0-0.1,0-0.1c0.1-0.4-0.2-0.8-0.6-0.9c-0.3,0-0.5,0.1-0.7,0.2c-0.2-0.2-0.5-0.3-0.7-0.5
			c0-0.1,0.1-0.1,0.1-0.2c0.1-0.4-0.2-0.8-0.6-0.9c-0.3,0-0.5,0.1-0.7,0.2c-0.3-0.3-0.7-0.5-1-0.8c0-0.1,0.1-0.1,0.1-0.2
			c0-0.2,0-0.4-0.1-0.6c-0.1-0.2-0.3-0.3-0.5-0.3c-0.2,0-0.4,0-0.6,0.1c-0.5-0.4-0.9-0.8-1.1-1.1c0-0.1,0.1-0.2,0.1-0.3
			c0-0.2,0-0.4-0.1-0.6c-0.1-0.2-0.3-0.3-0.5-0.3c-0.4-0.1-0.8,0.2-0.9,0.6c0,0.2,0,0.5,0.2,0.6c0,0-0.1,0.1-0.1,0.1
			c-1.3-1.4-2.2-2.7-2.6-3.2L111,442.5L111,442.5z M130.2,457.6C130.2,457.6,130.3,457.6,130.2,457.6c0-0.2,0-0.3,0-0.5
			c1.5-0.7,3.4-1.2,4.5-0.6c0.5,0.3,0.8,0.8,1,1.6c-0.2,0-0.3,0-0.4,0c-0.2-0.8-0.6-1.2-0.9-1.4
			C133.2,456.2,131.4,456.9,130.2,457.6z M134.3,458c-2,0-3.4,0.5-4.2,1.6l0-0.8c1.3-0.8,3.1-1.7,3.9-1.3
			C134,457.6,134.2,457.7,134.3,458z M135,456.1c-1-0.6-2.5-0.3-3.6,0.1c0.3-0.3,0.5-0.8,0.5-1.3c0-0.1,0-0.1,0-0.2l0.7-0.3
			c0.2,0.8,0.9,1.3,1.8,1.3c0.7,0,1.4-0.4,1.7-1.1l0.6,0.5c-0.2,0.3-0.4,0.7-0.4,1.1c0,1,0.8,1.9,1.9,1.9c0.3,0,0.6-0.1,0.8-0.2
			c0,0.2,0.1,0.6-0.1,1c-0.5-0.3-1.1-0.5-1.7-0.6c-0.3-0.1-0.6-0.1-0.9-0.1C136.1,457.2,135.7,456.5,135,456.1z M134.2,472.7
			c1.1,0,2-0.8,2.1-1.9c0.2,0,0.5,0,0.8-0.1l-4.9,5.9c-0.1,0-0.1,0-0.2-0.1l0.2-5.3C132.5,472.1,133.2,472.7,134.2,472.7z
			 M132.2,469.7l0-1c0.1,0.2,0.2,0.3,0.3,0.4C132.5,469.3,132.3,469.5,132.2,469.7z M136,470.3c-0.1,0-0.2,0.1-0.2,0.3
			c0,0.9-0.7,1.7-1.6,1.7c-0.9,0-1.6-0.7-1.6-1.6c0-0.5,0.2-1,0.5-1.3c0.1-0.1,0.1-0.1,0.1-0.1c0-0.1,0-0.2-0.1-0.2
			c0,0-0.5-0.4-0.8-1.1c0,0,0,0,0,0l0-0.3c0.3,0.7,0.9,1.3,1.5,1.7c-0.2,0-0.3,0.1-0.4,0.2c-0.3,0.2-0.5,0.6-0.5,0.9
			c-0.1,0.8,0.4,1.4,1.2,1.5c0,0,0.1,0,0.2,0c0.3,0,0.6-0.1,0.8-0.3c0.3-0.2,0.5-0.6,0.5-0.9c0-0.3,0-0.5-0.1-0.7
			c0.3,0.1,0.7,0.2,1,0.2h0c0.4,0,0.9-0.1,1.3-0.2c0,0-0.3,0.2-0.3,0.2C136.8,470.2,136,470.3,136,470.3z M135.3,467.2
			c0.1,0,0.2,0,0.3,0.1c0,0,0.1,0,0.1,0.1c0.4,0.2,0.6,0.8,0.5,1.3c-0.2,0.5-0.8,0.8-1.3,0.6c-0.5-0.2-0.8-0.8-0.6-1.3
			C134.5,467.4,134.8,467.2,135.3,467.2z M135.2,464.9c0,0,0-0.1,0.1-0.1c0.3-0.6,1-0.9,1.8-0.7c0.1,0,0.1,0.1,0.2,0.1
			c0.6,0.3,0.9,1.1,0.7,1.8c0,0.1-0.1,0.1-0.1,0.2c-0.3,0.6-1,0.9-1.8,0.7c-0.1,0-0.1,0-0.2-0.1
			C135.2,466.4,134.9,465.7,135.2,464.9z M134.3,469.6c0.5,0.1,0.8,0.5,0.7,1c0,0.2-0.1,0.4-0.3,0.6c-0.2,0.1-0.4,0.2-0.6,0.2
			c-0.5-0.1-0.8-0.5-0.7-1c0-0.2,0.1-0.4,0.3-0.6C133.9,469.7,134.1,469.6,134.3,469.6z M136,469.5c0.3-0.2,0.5-0.5,0.7-0.8
			c0.2-0.4,0.1-0.9-0.1-1.3c0.4,0,0.8-0.2,1.1-0.4c0.1,0.5,0.5,0.9,1,1.1c0.2,0.1,0.4,0.1,0.5,0.1c0.1,0,0.2,0,0.3,0
			C138.6,469.2,137.3,469.7,136,469.5z M137.4,463.7c0,0-0.1-0.1-0.2-0.1c-0.4-0.2-0.6-0.8-0.5-1.3c0.2-0.5,0.8-0.8,1.3-0.6
			c0.5,0.2,0.8,0.8,0.6,1.3C138.4,463.6,137.9,463.9,137.4,463.7z M136.2,462.2c-0.2,0.4-0.1,0.9,0.1,1.3c-0.4,0-0.8,0.2-1.1,0.4
			c-0.1-0.5-0.5-0.9-1-1.1c-0.2-0.1-0.4-0.1-0.5-0.1c-0.1,0-0.2,0-0.3,0c0.8-0.9,2.1-1.4,3.4-1.3
			C136.6,461.6,136.4,461.9,136.2,462.2z M133.8,463.2c0.1,0,0.2,0,0.4,0.1c0.5,0.2,0.8,0.8,0.6,1.3c0,0,0,0.1-0.1,0.1
			c-0.2,0.4-0.8,0.7-1.2,0.5c-0.5-0.2-0.8-0.8-0.6-1.3C133,463.5,133.4,463.2,133.8,463.2z M133.2,465.7c0.2,0.1,0.4,0.1,0.5,0.1
			c0.3,0,0.5-0.1,0.7-0.2c0,0.4,0.2,0.8,0.4,1.1c-0.5,0.1-0.9,0.5-1.1,1c-0.1,0.3-0.1,0.6-0.1,0.8c-0.9-0.9-1.4-2.1-1.3-3.4
			C132.6,465.3,132.9,465.6,133.2,465.7z M132.7,461.4l-1.6,3.8l-0.8,1l2.4-5.3C132.7,461,132.7,461.2,132.7,461.4z M131.9,465.9
			l-0.5,10.6c-0.1,0-0.3,0-0.4,0.1l0.4-9.6L131.9,465.9z M128.4,486.5c0.6,0.2,0.8,0.8,0.6,1.4c-0.2,0.5-0.8,0.9-1.4,0.6
			c0,0-0.1,0-0.1-0.1c-0.5-0.3-0.7-0.8-0.5-1.4C127.2,486.6,127.8,486.3,128.4,486.5z M128,484.9c0-0.3,0.2-0.5,0.4-0.7
			c0.2-0.1,0.4-0.2,0.6-0.2c0,0,0.1,0,0.1,0c0.5,0.1,0.9,0.6,0.8,1.1c0,0.3-0.2,0.5-0.4,0.7c-0.2,0.2-0.4,0.2-0.7,0.2
			C128.3,485.9,127.9,485.4,128,484.9z M107.8,454C107.8,454,107.8,454,107.8,454c0,0.1-0.1,0.1-0.1,0.2v0.1
			c-0.4-0.4-0.9-0.8-1.2-1.2v-0.9c0.3,0.3,0.7,0.7,1.2,1.1c0,0,0,0,0,0C107.7,453.6,107.7,453.8,107.8,454z M107.8,455.5l0,1.3
			c-0.4,0.3-0.8,0.7-1.2,1.2l0-3.6C106.9,454.8,107.3,455.1,107.8,455.5z M107.8,459l-0.1,37.5l-1.2,2l0-38.3L107.8,459z
			 M107.7,499.4l0,10.2c0,0,0,0.1,0,0.1l-1.2,2.5l0-10.9L107.7,499.4z M107,513.5c0.4-0.9,1.3-1.5,2.2-1.5c0.1,0,0.1,0,0.2,0
			l-1.3,2.8c-0.4-0.4-0.8-0.8-1.2-1.1C107,513.6,107,513.5,107,513.5z M112,492.2l0,8.4c0,0,0,0.1,0,0.1l-1.3,2.8l0-9.2L112,492.2z
			 M110.7,491.4l0.1-32.9c0.3,0.2,0.7,0.5,1.1,0.7l0,30.1L110.7,491.4z M112,457.2v0.2c-0.4-0.2-0.7-0.5-1.1-0.7l0-0.7
			c0,0,0,0,0.1,0c0.3,0.2,0.6,0.4,0.9,0.6C111.8,456.7,111.9,456.9,112,457.2C112,457.1,112,457.2,112,457.2z M110.7,455.5
			c-0.1-0.1-0.2-0.1-0.3-0.1h0c0,0,0,0,0,0c0-0.1-0.1-0.1,0-0.2c0-0.1,0.1-0.2,0.3-0.2c0,0,0,0,0,0c0.1,0,0.2,0.2,0.2,0.3
			C110.9,455.4,110.8,455.4,110.7,455.5z M113,500.9l-0.5,4.3l-0.5,1l-3.3,3.7L113,500.9z M112.3,456.5c0-0.1,0.1-0.2,0.3-0.2
			c0,0,0,0,0,0c0.1,0,0.2,0.2,0.2,0.3c0,0.1-0.1,0.1-0.1,0.2c-0.1,0-0.1-0.1-0.2-0.1c0,0-0.1,0-0.1,0
			C112.3,456.7,112.3,456.6,112.3,456.5z M118.1,490.1l-0.6,3.5l-2.7,3.4L118.1,490.1z M116.6,458.3c0-0.1,0.1-0.2,0.3-0.2
			c0,0,0,0,0,0c0.1,0,0.2,0.2,0.2,0.3c0,0.1-0.1,0.2-0.2,0.2c0,0-0.1-0.1-0.1-0.1h0c0,0,0,0,0,0
			C116.6,458.5,116.5,458.5,116.6,458.3z M121.9,456.6c0.9-0.1,1.4-0.5,1.5-1.3l0.5,0.1c0,0.1,0,0.2,0,0.2c0,0.7,0.4,1.3,1,1.7
			c-0.3,0.1-0.5,0.3-0.7,0.5c-0.6,0.6-1.5,0.6-2,0.5c0.1-0.2,0.1-0.4,0.1-0.6C122.3,457.3,122.1,456.9,121.9,456.6z M123.9,492.8
			c-0.1,0.3-0.1,0.6-0.1,0.9c-1-0.9-1.6-2.3-1.4-3.7c0.2,0.3,0.5,0.6,0.8,0.7c0.2,0.1,0.4,0.1,0.6,0.1c0.3,0,0.6-0.1,0.8-0.2
			c0,0.4,0.2,0.8,0.4,1.2C124.5,491.9,124.1,492.2,123.9,492.8z M124.1,494.8c0.3,0,0.5,0.2,0.7,0.4c0.2,0.2,0.3,0.5,0.2,0.8
			c-0.1,0.6-0.6,1-1.2,1c-0.6-0.1-1-0.6-1-1.2c0.1-0.6,0.5-1,1.1-1C124,494.8,124.1,494.8,124.1,494.8z M122.2,487.1
			c-0.1-0.5-0.3-0.9-0.7-1.1l1-2.3L122.2,487.1z M124.9,489.5c0,0.1-0.1,0.1-0.1,0.2c-0.3,0.5-0.8,0.7-1.3,0.5
			c-0.6-0.2-0.8-0.9-0.6-1.4c0.2-0.4,0.6-0.7,1-0.7c0.1,0,0.3,0,0.4,0.1C124.8,488.3,125.1,488.9,124.9,489.5z M123,485.4l0.3-2.8
			l1.6-1.7L123,485.4z M123.7,461.4c0.3,0,0.7-0.1,1-0.1l0,6.5l-1.1,1.8L123.7,461.4z M123.7,459.9c0.1-0.1,0.2-0.2,0.3-0.3
			c0.2,0,0.4,0,0.6-0.1c0,0,0.1,0.1,0.1,0.1l0,0.2C124.4,459.8,124.1,459.9,123.7,459.9C123.7,459.9,123.7,459.9,123.7,459.9z
			 M124.8,470.7l0,3.3c0,0,0,0,0,0l-1.1,2.3l0-3.8L124.8,470.7z M123.7,478.5l0.9-1.8l1.1-1.2l-2.1,4.8L123.7,478.5z M125.7,466.2
			l0-5.1c0.5-0.1,0.9-0.2,1.3-0.3l0,3.4L125.7,466.2z M126.9,467l0,2.5l-1.2,2.5l0-2.9L126.9,467z M125.7,459.5L125.7,459.5
			c0,0,0-0.1,0-0.1c0.1-0.1,0.1-0.1,0.1-0.2c0.2,0,0.3-0.1,0.5-0.1c0.2-0.1,0.4-0.1,0.7-0.2v0.3
			C126.5,459.3,126.1,459.4,125.7,459.5z M126.9,471.7l-0.2,1.3l-0.7,1.5l-1,1L126.9,471.7z M126.2,475.5l-0.3,2.7l-0.5,1.2l-1.8,2
			L126.2,475.5z M125.3,459.1C125.2,459.1,125.2,459.1,125.3,459.1L125.3,459.1c-0.2,0-0.2,0-0.3,0c-0.1,0-0.1,0-0.1-0.1
			c0-0.1-0.1-0.1,0-0.2c0-0.1,0.1-0.2,0.3-0.2c0,0,0,0,0,0c0.1,0,0.2,0.2,0.2,0.3C125.3,459,125.3,459,125.3,459.1z M123.4,459.5
			C123.3,459.5,123.3,459.4,123.4,459.5L123.4,459.5c-0.1,0-0.2,0-0.2,0c-0.1,0-0.2-0.2-0.2-0.3c0-0.1,0.1-0.2,0.3-0.2c0,0,0,0,0,0
			c0.1,0,0.2,0.2,0.2,0.3C123.5,459.4,123.4,459.5,123.4,459.5z M127.1,477.6c0.2,0.6,0.7,1.1,1.4,1.2c0.2,0,0.3,0,0.5,0l-4.8,6
			L127.1,477.6z M128.6,478.3c-0.6-0.1-1.1-0.7-1-1.3c0-0.3,0.2-0.6,0.4-0.8c0.2-0.2,0.5-0.2,0.7-0.2c0,0,0.1,0,0.1,0
			c0.6,0.1,1.1,0.7,1,1.3c0,0.3-0.2,0.6-0.5,0.8C129.2,478.3,128.9,478.3,128.6,478.3z M126.5,476.7l0.6-2.7l1.3-1.6L126.5,476.7z
			 M127.4,470.8l0.4-0.7l1.2-1.6l-1.7,3.7L127.4,470.8z M127.2,458.1C127.2,458.1,127.2,458.1,127.2,458.1c0.1-0.2,0.2-0.2,0.3-0.2
			h0c0.1,0,0.3,0.2,0.2,0.3c0,0.1-0.1,0.1-0.1,0.2c-0.1,0-0.1-0.1-0.2-0.1c0,0-0.1,0-0.1,0c0,0-0.1,0-0.1,0
			C127.2,458.3,127.2,458.2,127.2,458.1z M129.2,463.3l0,1.5l-1.3,2.7l0-2.1L129.2,463.3z M127.9,462.5l0-2.1
			c0.3-0.1,0.5-0.2,0.7-0.3l0,1.1L127.9,462.5z M129.1,458.3c-0.1,0-0.1,0.1-0.1,0.1c-0.4,0.2-0.7,0.3-1.1,0.4v0c0,0,0,0,0,0
			c0.1-0.1,0.3-0.3,0.3-0.4c0.3-0.1,0.5-0.3,0.8-0.4c0,0,0.1,0.1,0.1,0.1c0,0,0,0,0,0L129.1,458.3z M127.3,473.1l1.9-4.3l-0.2,1.8
			l-0.4,1L127.3,473.1z M128.4,468.6l1.4-3l-0.4,2.2L128.4,468.6z M129.7,457.6C129.6,457.6,129.6,457.6,129.7,457.6
			c-0.1,0-0.2,0-0.2,0c-0.1,0-0.2-0.2-0.2-0.3c0-0.1,0.1-0.2,0.3-0.2c0,0,0,0,0,0c0.1,0,0.1,0.1,0.2,0.1c0,0.1,0.1,0.1,0,0.2
			C129.8,457.5,129.7,457.6,129.7,457.6z M128.8,457.3c0,0.1,0,0.1,0,0.2c-0.2,0.1-0.4,0.2-0.6,0.3c-0.1-0.2-0.3-0.4-0.5-0.4
			c-0.3,0-0.5,0.1-0.7,0.2c-0.1-0.1-0.3-0.2-0.5-0.3c0.6-0.3,1-0.8,1.1-1.5l0.8-0.2c0.2,0.5,0.6,0.9,1.1,1.1
			C129.1,456.7,128.8,456.9,128.8,457.3z M126.7,458.2c0,0.1,0,0.2,0,0.3c-0.2,0.1-0.4,0.1-0.6,0.2c-0.1,0-0.2,0.1-0.3,0.1
			c-0.1-0.3-0.3-0.5-0.6-0.6c-0.4-0.1-0.8,0.2-0.9,0.6c0,0.1,0,0.1,0,0.2c-0.1,0-0.2,0-0.4,0c0-0.1-0.1-0.3-0.2-0.3
			c0.3-0.1,0.5-0.3,0.8-0.5c0.3-0.3,0.7-0.5,1-0.5c0,0,0,0,0,0C126.1,457.7,126.6,458,126.7,458.2z M122.8,461.5l0,9.7l-1.2,2.1
			l0-11.7C122,461.5,122.4,461.5,122.8,461.5z M121.5,460.1v-0.2c0.1-0.1,0.2-0.2,0.3-0.3c0.1,0,0.2,0,0.3,0c0.2,0,0.4,0,0.5,0
			c0.1,0.1,0.1,0.2,0.2,0.2c0,0,0,0,0,0.1v0.1C122.4,460,121.9,460.1,121.5,460.1z M122.7,474.1l0,4.1c0,0,0,0.1,0,0.1l-1.2,2.5
			l0-4.7L122.7,474.1z M123,480l-0.2,1.9l-0.3,0.7l-1.6,1.8L123,480z M121.3,459.5c-0.1,0-0.1-0.1-0.2-0.1c0,0-0.1,0-0.1,0.1
			c-0.1-0.1-0.1-0.1-0.1-0.2c0-0.1,0.1-0.2,0.3-0.2c0,0,0,0,0,0c0.1,0,0.2,0.2,0.2,0.3C121.4,459.4,121.3,459.4,121.3,459.5z
			 M121.8,484.2l-0.7,1.6c-0.2,0-0.4,0-0.6,0.1c-0.1,0-0.1,0-0.2,0.1L121.8,484.2z M120.6,461.5l0,13.4l-1.1,1.9l0-15.4
			C119.8,461.4,120.2,461.5,120.6,461.5z M119.4,459.9v-0.1c0.1-0.1,0.2-0.2,0.3-0.3c0.2,0,0.5,0.1,0.7,0.1c0,0.1,0.1,0.2,0.2,0.2
			c0,0,0,0,0,0.1l0,0.2C120.2,460,119.8,460,119.4,459.9z M120.6,477.8v4.9c0,0,0,0.1,0,0.1l-1.2,2.4l0-5.6L120.6,477.8z
			 M119.4,487.5c0.3-0.5,0.7-1,1.2-1.1c0.2-0.1,0.4-0.1,0.7,0c0.6,0.3,0.7,1.3,0.2,2.1c-0.3,0.5-0.7,1-1.2,1.1
			c-0.2,0.1-0.4,0.1-0.7,0C119.1,489.3,119,488.4,119.4,487.5z M121.7,493.8c0.2,0.3,0.4,0.4,0.5,0.6c-0.3,0.3-0.5,0.7-0.5,1.2
			L121.7,493.8z M115.3,498.9l0-1.5l1.5-1.9L115.3,498.9z M117.2,495.8l-0.4,2.7l-1.1,0.8L117.2,495.8z M116.7,499.3l-0.4,2.2
			l-1,1.1l0-2.3L116.7,499.3z M116.7,503.3c0.3,0.6,0.8,1,1.4,1.1c0.1,0,0.2,0,0.2,0c0.4,0,0.8-0.2,1.1-0.4c0,0,0,0,0,0c0,0,0,0,0,0
			l-6.1,7.3L116.7,503.3z M118.2,503.9c-0.7-0.1-1.2-0.7-1.1-1.4l0.3-0.7c0.2-0.3,0.6-0.5,1-0.5c0.1,0,0.1,0,0.2,0
			c0.7,0.1,1.2,0.7,1.1,1.5C119.5,503.5,118.9,504,118.2,503.9z M118.6,500.8c-0.3,0-0.6,0-0.9,0.1l2.5-6.1l-0.1,7.3
			C119.9,501.4,119.3,500.9,118.6,500.8z M117.1,499.8l1-5.9l2.9-3.7L117.1,499.8z M118.9,491.9l0.8-1.7c0.2,0,0.4,0,0.6,0
			L118.9,491.9z M120.7,493.5l0.5-1.3l-0.2,9.9c-0.2,0-0.3,0.1-0.4,0.1L120.7,493.5z M119.2,459.4c-0.1,0-0.1-0.1-0.2-0.1
			c0,0-0.1,0-0.1,0c0,0,0,0,0,0c0-0.1-0.1-0.1,0-0.2c0-0.1,0.1-0.2,0.3-0.2c0,0,0,0,0,0c0.1,0,0.1,0.1,0.2,0.1c0,0.1,0.1,0.1,0,0.2
			C119.3,459.3,119.3,459.3,119.2,459.4z M119.2,490l-0.8,1.8l0.4-2.3C118.9,489.7,119,489.8,119.2,490z M118.5,459.7L118.5,459.7
			c-0.4,0-0.9-0.1-1.3-0.2l0-0.4c0,0,0,0,0,0c0,0,0.1,0,0.1,0c0.4,0.1,0.7,0.2,1,0.2c0,0.1,0.1,0.2,0.1,0.3
			C118.5,459.6,118.5,459.6,118.5,459.7C118.5,459.7,118.5,459.7,118.5,459.7z M117.2,461c0.4,0.1,0.8,0.2,1.3,0.2l0,17.2l-1.3,2.2
			L117.2,461z M118.5,481.3l0,5.9l-1.3,2.8l0-6.5L118.5,481.3z M116.2,492l-1.1,2.3l0-7.4l1.1-1.9L116.2,492
			C116.2,492,116.2,492,116.2,492z M116.3,459.1v0.2c-0.4-0.1-0.8-0.2-1.1-0.4l0-0.5c0,0,0.1,0,0.1-0.1c0.3,0.1,0.6,0.2,0.9,0.3
			c0,0.1,0.1,0.2,0.2,0.3C116.3,459,116.3,459,116.3,459.1z M116.3,460.8l-0.1,21.4l-1.1,1.9l0.1-23.6
			C115.5,460.6,115.9,460.7,116.3,460.8z M114.9,457.9c-0.1,0-0.1-0.1-0.2-0.1h0c0,0,0,0,0,0c0-0.1-0.1-0.1-0.1-0.2
			c0-0.1,0.1-0.2,0.3-0.2c0,0,0,0,0,0c0.1,0,0.2,0.2,0.2,0.3C115.1,457.8,115,457.9,114.9,457.9z M114.1,488.6l0,7.4
			c0,0.1,0,0.2,0.1,0.2l-1.2,2.5l0-8.2L114.1,488.6z M113,487.7l0-28c0.4,0.2,0.8,0.3,1.2,0.5l-0.1,25.6L113,487.7z M113.4,501.6
			l0.9-0.7l-1.1,2.6L113.4,501.6z M114.7,501.4l0,1.8l-1.6,1.8L114.7,501.4z M114.7,498l0,2l-1.2,0.9l0.2-1.5l0.1-0.3L114.7,498z
			 M114.2,458.3v0.2c-0.4-0.2-0.8-0.4-1.3-0.6v-0.7c0,0,0,0,0,0c0.4,0.2,0.8,0.4,1.1,0.6c0,0.1,0.1,0.3,0.2,0.4
			C114.2,458.2,114.2,458.2,114.2,458.3z M109.8,505.4l-1.1,2.4l0-10l1.1-1.9l0,9.4C109.7,505.3,109.7,505.4,109.8,505.4z
			 M109.9,455.8l0,0.2c-0.4-0.3-0.8-0.6-1.2-0.9l0-0.8c0,0,0,0,0,0c0.3,0.3,0.7,0.6,1.1,0.9c0,0.2,0,0.4,0.1,0.5
			C110,455.7,109.9,455.8,109.9,455.8z M109.4,457.3c0.1,0.1,0.3,0.2,0.5,0.3l-0.1,35.4l-1.1,1.9l0.1-36.9L109.4,457.3z
			 M108.5,453.8c-0.1-0.1-0.2-0.1-0.3-0.1h0c0,0,0,0,0,0c0-0.1-0.1-0.1,0-0.2c0-0.1,0.1-0.2,0.3-0.2c0,0,0,0,0,0
			c0.1,0,0.1,0.1,0.2,0.1c0,0.1,0.1,0.1,0,0.2C108.7,453.7,108.6,453.8,108.5,453.8z M111.3,507.8l-1.5,3.5c-0.2,0-0.3-0.1-0.5-0.1
			c-0.5,0-0.9,0.1-1.3,0.3L111.3,507.8z M109.9,512.1c0.1,0,0.1,0,0.2,0.1c1,0.6,1.2,2.1,0.4,3.4c-0.2,0.3-0.4,0.6-0.6,0.6
			c0,0-0.1,0-0.1,0c-0.4-0.3-0.8-0.7-1.2-1L109.9,512.1z M110.5,511.6c-0.1,0-0.2-0.1-0.3-0.1l2-4.4l-0.7,5.7
			C111.3,512.2,111,511.8,110.5,511.6z M112.9,506l3.1-3.5l-3.8,9.5L112.9,506z M112.7,513.1l6.9-8.4c0.1,0.2,0.2,0.3,0.3,0.5
			l-7.7,9.1L112.7,513.1z M120,503.6c0.1-0.7,0.6-1.2,1.3-1.2c0.1,0,0.1,0,0.2,0c0.7,0.1,1.2,0.7,1.1,1.5c-0.1,0.7-0.7,1.3-1.5,1.1
			C120.4,505,119.9,504.3,120,503.6z M121.8,502.1c-0.1,0-0.1-0.1-0.2-0.1l0.1-5.7c0.2,1.1,1.1,2,2.3,2c1.2,0,2.2-1,2.3-2.2
			c0.3,0,0.8-0.1,1.3-0.2L121.8,502.1z M126,495.6c-0.1,0-0.3,0.1-0.3,0.3c0,1-0.8,1.9-1.8,1.9c-1,0-1.8-0.8-1.8-1.8
			c0-0.5,0.2-1.1,0.6-1.4c0.1-0.1,0.1-0.1,0.1-0.2c0-0.1-0.1-0.2-0.1-0.2c0,0-0.6-0.4-0.9-1.2c0,0-0.1-0.1-0.1-0.1l0-1.9
			c0,0,0-0.1,0-0.1l0.1-0.2c0,1.5,0.7,2.8,1.9,3.7c-0.7,0.1-1.3,0.7-1.4,1.4c-0.1,0.9,0.5,1.7,1.4,1.8c0.1,0,0.1,0,0.2,0
			c0.8,0,1.5-0.6,1.6-1.4c0-0.3,0-0.7-0.2-1c0.4,0.1,0.8,0.2,1.3,0.2c0.6,0,1.2-0.1,1.8-0.4l-0.2,0.2c-0.1,0-0.1,0-0.2,0
			C127.7,495.5,126.5,495.6,126,495.6z M125,494.4c-0.6-0.2-0.8-0.8-0.6-1.4c0.2-0.4,0.6-0.7,1-0.7c0.1,0,0.2,0,0.3,0.1
			c0.1,0,0.1,0.1,0.2,0.1c0.5,0.3,0.7,0.8,0.5,1.4C126.2,494.3,125.6,494.6,125,494.4z M126.2,491.9c-0.1,0-0.1-0.1-0.2-0.1
			c-0.7-0.4-1-1.2-0.7-1.9c0-0.1,0.1-0.1,0.1-0.2c0.3-0.7,1.1-1,1.9-0.7c0,0,0.1,0,0.2,0.1c0.7,0.4,1,1.2,0.7,1.9c0,0,0,0.1-0.1,0.2
			C127.7,491.8,126.9,492.2,126.2,491.9z M126.5,487c-0.2,0.5-0.1,1,0.1,1.4c-0.4,0-0.8,0.2-1.2,0.4c-0.1-0.5-0.5-1-1-1.2
			c-0.2-0.1-0.4-0.1-0.6-0.1c-0.1,0-0.2,0-0.3,0c0.9-1,2.3-1.6,3.7-1.4C126.9,486.3,126.6,486.6,126.5,487z M123.4,486.9l0.2-0.4
			c0,0,0,0,0,0l6.3-7.8c0,0.2,0.1,0.3,0.2,0.5l-5.5,6.9C124.1,486.3,123.7,486.6,123.4,486.9z M129,475.4c-0.4,0-0.7,0.1-1,0.2
			l2.9-7.2l-0.4,8.4c0,0,0,0,0,0c0,0,0,0,0,0C130.3,476.1,129.7,475.5,129,475.4z M129.4,469.6l0.2-1.6l1.3-2.1L129.4,469.6z
			 M129.8,466.8c0,0,0.5-2.2,0.5-2.2l1.8-3.7c0,0,0,0,0,0l0.1-0.1L129.8,466.8z M129.9,456.8C129.9,456.8,129.9,456.8,129.9,456.8
			C129.9,456.7,129.9,456.8,129.9,456.8C129.9,456.8,129.9,456.8,129.9,456.8z M121.6,455.5C121.5,455.5,121.5,455.5,121.6,455.5
			c-0.3-0.1-0.5-0.3-0.5-0.6c0-0.2,0.2-0.4,0.5-0.4c0,0,0.1,0,0.1,0c0.3,0,0.4,0.3,0.4,0.6C122,455.3,121.8,455.5,121.6,455.5z
			 M115.9,454.3c-0.8,0-1.5,0.5-1.7,1.2l-1.1-0.7c0.2-0.3,0.3-0.7,0.3-1.1c0-1-0.8-1.8-1.8-1.8c-0.7,0-1.3,0.4-1.6,0.9
			c-0.2-0.2-0.6-0.7-1.5-1.9c0.5-0.5,0.7-1,0.7-1.6c0-0.7-0.5-1.3-0.8-1.6l1.1-0.9c0.2,0.8,0.9,1.4,1.8,1.4c0.4,0,0.8-0.1,1.1-0.3
			l0.5,0.7c-0.3,0.3-0.4,0.7-0.4,1.2c0,1,0.8,1.9,1.8,1.9c0.4,0,0.7-0.1,1-0.3l0.8,0.6c-0.1,0.2-0.1,0.5-0.1,0.7
			c0,1,0.8,1.9,1.8,1.9c0.6,0,1.1-0.2,1.4-0.7l0.7,0.3c0,0.2-0.1,0.3-0.1,0.5c0,0.4,0.1,0.8,0.4,1.1c-0.8,0.1-1.4,0.7-1.6,1.5
			l-1.2-0.4c0.1-0.2,0.2-0.5,0.2-0.8C117.7,455.2,116.9,454.3,115.9,454.3z M116.3,455.9c0,0.3-0.3,0.4-0.5,0.4
			c-0.3,0-0.4-0.3-0.4-0.6c0-0.2,0.2-0.4,0.5-0.4c0,0,0.1,0,0.1,0C116.2,455.4,116.4,455.7,116.3,455.9z M112.2,453.6
			c0,0.2-0.2,0.4-0.5,0.4c0,0-0.1,0-0.1,0c-0.3,0-0.4-0.3-0.4-0.6c0-0.2,0.2-0.4,0.5-0.4c0,0,0.1,0,0.1,0
			C112.1,453.1,112.2,453.4,112.2,453.6z M121,457.4c0,0.3-0.3,0.4-0.5,0.4c-0.3,0-0.4-0.3-0.4-0.6c0-0.2,0.2-0.4,0.5-0.4
			c0,0,0.1,0,0.1,0C120.9,456.9,121.1,457.2,121,457.4z M106.5,451.5c0,0,0,0.1-0.1,0.1c0,0-0.1,0-0.1,0c0,0,0,0,0,0
			c0,0-0.1,0-0.1,0c0,0-0.1,0-0.1,0c-0.1-0.1-0.2-0.2-0.2-0.3c0-0.1,0.1-0.2,0.3-0.2c0,0,0,0,0,0c0.1,0,0.1,0.1,0.2,0.1
			S106.5,451.5,106.5,451.5z M101.5,520.4c0.1-0.3,0.3-0.7,0.6-0.8c0.1-0.1,0.3-0.1,0.5-0.1c0.1,0,0.2,0,0.2,0
			c0.1,0,0.2,0.1,0.3,0.1l-0.2,0.5c0,0.1-0.1,0.1-0.1,0.2l-0.6,1.3C101.7,521.3,101.4,520.9,101.5,520.4z M101.7,522.2l-0.2,0.3
			c0-0.1,0-0.3,0-0.4C101.6,522.2,101.7,522.2,101.7,522.2z M102.1,506c-4.9-9.1-5-18.5-5-18.6c-0.5-12.2,4.3-20.9,8.5-26l0,38.8
			L102.1,506z M105.5,503l0,9c-1.1-1.3-2.1-2.7-2.9-4.1L105.5,503z M98.2,500.6C98.2,500.7,98.2,500.7,98.2,500.6l-1.3,3l-2.9-1.2
			l1.8-2.3L98.2,500.6z M96.2,499.6l1.1-1.4c0.2,0.6,0.4,1.2,0.6,1.8L96.2,499.6z M97.2,504.4l2.5,1.1c-1,0.2-2.4,0.5-3.4,1.2
			L97.2,504.4z M97.5,503.9l1-2.3c0.4,1.1,0.9,2.3,1.4,3.4L97.5,503.9z M95.6,486.8l-2.4-1.1l2.4-1.5
			C95.5,485.1,95.5,486,95.6,486.8z M94.1,481.7l1.7-1c-0.1,0.7-0.1,1.4-0.2,2.2L94.1,481.7z M95.6,488c0,0.5,0.1,1.3,0.2,2.3
			l-2.4-0.9L95.6,488z M95.9,491.4c0.1,0.6,0.2,1.4,0.4,2.1l-2.5-0.7L95.9,491.4z M94.7,478l1.7-0.9c-0.1,0.7-0.3,1.5-0.4,2.2
			L94.7,478z M96.5,494.7c0.1,0.7,0.3,1.4,0.5,2.1l-2.3-0.6L96.5,494.7z M97.7,472.3l-2.6,1.3l-1.4-1.8l2.8-1.3L97.7,472.3z
			 M97,470.3l1.8-0.8c-0.3,0.7-0.6,1.4-0.9,2.1L97,470.3z M97.4,473.1c-0.3,0.8-0.5,1.7-0.7,2.6l-1.2-1.6L97.4,473.1z M99.4,468.1
			l-1-1.7l2.4-0.9C100.3,466.4,99.9,467.2,99.4,468.1z M101.4,464.7l-0.7-2.1l2.8-1C102.8,462.5,102.1,463.5,101.4,464.7z
			 M100.4,461.9l-0.6-1.6c0.5,0.4,1.3,0.8,2.2,1L100.4,461.9z M100.1,462.7l0.8,2.2l-2.7,1l-1.2-2l0,0L100.1,462.7z M97.5,466.1
			l-2.3,0.8c0.4-1,0.9-1.8,1.3-2.5L97.5,466.1z M97.9,466.7l1.2,2.1l-2.4,1.1l-1.6-2.2L97.9,466.7z M96.1,470.1l-2.5,1.1
			c0.4-1.1,0.7-2.1,1.1-3L96.1,470.1z M94.5,473.9l-2,1c0.2-0.9,0.5-1.8,0.7-2.6L94.5,473.9z M94.9,474.4l1.5,1.9l-2.2,1.2l-1.8-1.7
			c0,0,0-0.1,0-0.1c0,0,0.1,0,0.1,0L94.9,474.4z M93.6,477.8l-1.8,1c0.1-0.8,0.3-1.5,0.4-2.3L93.6,477.8z M94.1,478.3l1.8,1.7
			l-2.3,1.3l-1.9-1.4c0-0.1,0-0.2,0.1-0.4c0,0,0,0,0.1,0L94.1,478.3z M93,481.6l-1.6,0.9c0.1-0.7,0.1-1.3,0.2-2L93,481.6z M93.5,482
			l2.1,1.5l-3.1,1.9l-1.3-0.6c0-0.7,0.1-1.2,0.1-1.5L93.5,482z M91.8,485.8l-0.7,0.4c0-0.3,0-0.5,0-0.7L91.8,485.8z M92.5,486.1
			l2.9,1.3l-2.7,1.7l-1.6-0.6c0-0.5,0-1,0-1.4L92.5,486.1z M92.1,489.5l-0.9,0.6c0-0.3,0-0.6,0-1L92.1,489.5z M92.8,489.8l2.8,1.1
			l-2.6,1.7l-1.7-0.5c0-0.5-0.1-0.9-0.1-1.4L92.8,489.8z M92.4,493.1l-0.8,0.6c0-0.3-0.1-0.6-0.1-0.8L92.4,493.1z M93.2,493.3
			l3.1,0.9L94,496l-2.2-0.6c-0.1-0.4-0.1-0.7-0.2-1L93.2,493.3z M93.5,496.5l-1.2,1c-0.1-0.5-0.2-1-0.3-1.4L93.5,496.5z M94.2,496.7
			l2.9,0.8l-1.5,1.9l-3.1-0.7c0-0.2-0.1-0.4-0.1-0.5L94.2,496.7z M95.2,499.9l-1.4,1.8c-0.2-0.6-0.4-1.1-0.8-1.8
			c-0.1-0.2-0.1-0.4-0.2-0.6L95.2,499.9z M94,503l2.7,1.2c0,0-1.6,3.7-1.6,3.8l-0.7,1.8c-1.2-2.1-1.4-2.9-1.4-3.1
			c0.2-0.3,0.5-0.7,0.7-1.2C93.8,504.9,94,504,94,503z M95.6,508.1c0.6-1.3,3.4-1.9,4.8-2.1c1.2,2.3,2.7,4.6,4.5,6.8
			c-0.3,0-0.5,0.1-0.7,0.3c-0.4,0.3-0.7,0.7-0.8,1.2c-0.1,0.5,0,1,0.3,1.4c-0.4,0-0.7,0.1-1,0.3c-0.4,0.3-0.7,0.7-0.8,1.2
			c-0.1,0.5,0,1,0.3,1.4c-0.2,0-0.4,0.1-0.6,0.2c-0.4,0.2-0.6,0.6-0.8,1c-0.5-1.1-1.4-2.5-2.7-4.4c-1.5-2.1-2.6-3.8-3.4-5
			L95.6,508.1z M102.7,517.4c0.1-0.3,0.2-0.6,0.5-0.7c0.2-0.1,0.4-0.2,0.6-0.2c0.1,0,0.1,0,0.2,0c0.3,0.1,0.4,0.1,0.4,0.1l-1,2.1
			C102.9,518.5,102.6,518,102.7,517.4z M104.2,514.5c0.1-0.3,0.2-0.6,0.5-0.7c0.2-0.1,0.4-0.2,0.6-0.2c0.1,0,0.1,0,0.2,0
			c0,0,0.1,0,0.1,0c0.1,0.1,0.1,0.1,0.2,0.2c0,0,0,0,0,0.1l-0.4,0.7c-0.3,0.4-0.5,0.9-0.6,1.2C104.4,515.5,104.1,515,104.2,514.5z
			 M107.4,441.7c0.5-0.4,1-0.5,1.2-0.5c0.1,0,0.1,0,0.1,0c0,0.1-0.2,0.6-0.9,1.1c-0.7,0.5-1.2,0.5-1.3,0.4
			C106.5,442.6,106.7,442.2,107.4,441.7z M102.7,445.6c0.5-0.4,1-0.5,1.2-0.5c0.1,0,0.1,0,0.1,0c0,0.1-0.2,0.6-0.9,1
			c-0.7,0.5-1.2,0.5-1.3,0.4C101.7,446.5,102,446.1,102.7,445.6z M100.8,447.7l0.7-0.5c0.1,0,0.1,0.1,0.2,0.1
			c0.4,0.1,1.1-0.1,1.7-0.5c0.8-0.5,1.4-1.3,1.1-1.8l2-1.5c0.4,0,1-0.2,1.6-0.5c0.6-0.4,1.2-1,1.2-1.5l0.3-0.2l0.8,0.5l-8.3,6.7
			L100.8,447.7z M102.6,450c-0.1,0.1-0.3,0.3-0.6,0.5c-0.3-0.5-0.7-1.3-1.1-2.1l1,0.5c0,0.1,0,0.1,0,0.2
			C101.9,449.1,102.2,449.4,102.6,450z M103.2,450.8c0.6,0.8,1.4,1.7,2.4,2.7v1.7c-0.5-0.9-1.3-1.6-2.4-1.8
			c-1.8-0.3-3.5,0.9-3.8,2.7c-0.3,1.8,0.9,3.6,2.7,3.9c0.2,0,0.4,0.1,0.6,0.1c1.3,0,2.4-0.8,3-1.9v0.9c-0.5,0.5-1,1.1-1.5,1.8
			c0,0-0.1,0-0.1,0c-0.1,0-0.1,0-0.2,0c0,0-0.1,0-0.1,0l0,0c-0.1,0-0.3,0-0.4,0c-2.3,0-3.7-1.7-3.7-1.7c0,0,0,0-0.1,0c0,0,0,0-0.1,0
			c0,0-0.1,0-0.1,0c0,0,0,0-0.1,0c0,0,0,0,0,0c0,0,0,0,0,0c0,0-0.1,0.1-0.1,0.1c0,0,0,0,0,0c0,0.1,0,0.1,0,0.2l0,0l0,0l0.9,2.8
			l-2.3,0.8c0.6-0.8,1-1.3,1-1.3c0.1,0,0.2-0.1,0.3-0.3c0-0.1,0.6-3.1-1.5-4.6C100.1,453.1,102.7,451.1,103.2,450.8z M105.3,457.1
			c-0.3,1.5-1.6,2.5-3.1,2.2c-1.5-0.3-2.5-1.7-2.2-3.2c0.2-1.3,1.3-2.3,2.7-2.3c0.2,0,0.3,0,0.5,0
			C104.5,454.2,105.5,455.6,105.3,457.1z M95.3,457.8c0.1-0.3,0.3-0.6,0.7-0.6c0.2,0,0.3,0.1,0.5,0.2c1,0.6,1.4,1.7,1.4,2.5
			c-0.5-0.7-1.2-0.9-1.8-1.1c-0.2-0.1-0.4-0.2-0.6-0.2C95.3,458.4,95.3,458.1,95.3,457.8z M95.5,459.3c0.2,0.1,0.3,0.1,0.5,0.2
			c0.8,0.3,1.5,0.6,2,1.7c-0.2,0.2-1,1.1-2.1,3c-0.1-0.3-0.3-0.5-0.6-0.6c0.4-0.1,0.8-0.4,1.1-0.8c0.6-0.9,0.3-2.1-0.6-2.7
			c-0.2-0.1-0.4-0.2-0.6-0.2C95.2,459.7,95.3,459.5,95.5,459.3z M94.3,461.1c0.1-0.1,0.2-0.1,0.3-0.1c0.4,0,0.8,0.3,0.8,0.8
			s-0.3,0.8-0.8,0.8c-0.4,0-0.7-0.3-0.8-0.7C94,461.6,94.2,461.3,94.3,461.1z M93.5,462.4c0.2,0.4,0.6,0.7,1.1,0.7
			c0.7,0,1.3-0.6,1.3-1.3c0-0.7-0.6-1.3-1.2-1.3c0,0,0-0.1,0-0.1c0.2,0,0.4,0,0.7,0.1c0.7,0.4,0.9,1.3,0.4,2
			c-0.2,0.3-0.5,0.6-0.9,0.6c-0.4,0.1-0.7,0-1.1-0.2C93.7,462.9,93.6,462.7,93.5,462.4C93.5,462.5,93.5,462.4,93.5,462.4z
			 M92.1,465.3l0.1,0l-0.2,0.1C92,465.4,92,465.3,92.1,465.3z M92.7,465.6l0.5,0.8l-1,0.6l-0.4-0.9L92.7,465.6z M93.4,466.9
			L93.4,466.9c-0.1,0.5-0.3,1-0.5,1.6l-0.5-0.9L93.4,466.9z M93.3,465.7L94,466l-0.3,0.2L93.3,465.7z M91.4,466.7l0.3,0.6l-0.7,0.4
			C91.1,467.4,91.3,467.1,91.4,466.7z M92,467.8l0.6,1.2l-1.2,0.9l-0.6-1.3L92,467.8z M92.4,469.7c-0.2,0.5-0.3,0.9-0.5,1.4
			l-0.4-0.8L92.4,469.7z M90.5,469.2l0.4,0.9l-0.9,0.7C90.1,470.2,90.3,469.7,90.5,469.2z M91.1,470.6l0.6,1.2l-1.2,0.8l-0.6-1.1
			L91.1,470.6z M91.7,472.3l-0.2,0.7l-0.7-0.2l0.2-0.1L91.7,472.3z M89.5,472.1l0.3,0.5l-0.4-0.1C89.5,472.4,89.5,472.2,89.5,472.1z
			 M88.1,473.9L88.1,473.9L88.1,473.9L88.1,473.9z M88.2,478.7c0.2,0.3,0.3,0.7,0.3,1.1c-0.1,0.3-0.2,0.6-0.5,0.8
			C88,480,88.1,479.3,88.2,478.7z M87.9,481.2c0,0,1-0.4,1.2-1.6c0.1-1.2-0.8-1.7-0.8-1.7l0.1-0.5c0,0,1.3,0.8,1.1,2.2
			c-0.2,1.4-1.6,2.1-1.6,2.1L87.9,481.2z M87.8,482.3c1.2-0.3,2.1-1.3,2.2-2.5c0.1-1.2-0.5-2.4-1.6-3c0.1-0.8,0.3-1.6,0.5-2.3
			L91,475c0,0.2-0.1,0.4-0.2,0.7c0-0.1-0.1-0.2-0.1-0.3c-0.2-0.2-0.4-0.4-0.7-0.4c-0.3,0-0.5,0-0.8,0.2c-0.2,0.2-0.4,0.4-0.4,0.7
			c-0.1,0.6,0.3,1.1,0.8,1.2c0.3,0,0.5,0,0.8-0.2c0.1-0.1,0.1-0.1,0.2-0.2c-0.3,1.7-0.8,4.3-0.9,6.9c-0.1-0.3-0.4-0.5-0.8-0.6
			c-0.3,0-0.5,0-0.8,0.2c-0.2,0.2-0.4,0.4-0.4,0.7c-0.1,0.6,0.3,1.1,0.8,1.2h0l0,0l-0.9,0C87.8,484.1,87.8,483.2,87.8,482.3z
			 M90.1,476.1c0,0.1-0.1,0.1-0.1,0.2c-0.1,0-0.1,0-0.2,0c-0.1,0-0.2-0.2-0.2-0.3c0-0.1,0-0.1,0.1-0.2c0,0,0.1,0,0.1,0c0,0,0,0,0,0
			c0.1,0,0.1,0,0.2,0.1C90.1,475.9,90.1,476,90.1,476.1z M89.4,484.9c0.1-0.1,0.3-0.2,0.3-0.4c0,0.2,0,0.4,0,0.6l-0.7,0
			C89.2,485,89.3,484.9,89.4,484.9z M89,484.2c-0.1,0-0.1,0-0.2,0c-0.1,0-0.2-0.2-0.2-0.3c0-0.1,0-0.1,0.1-0.2c0.1,0,0.1-0.1,0.2,0
			c0.1,0,0.2,0.2,0.2,0.3C89.1,484.1,89,484.2,89,484.2z M87.8,488.6l0.6,0.5l-0.6,0.9C87.8,489.5,87.8,489,87.8,488.6z M87.8,487.1
			l0.2,0l-0.2,0.4c0-0.1,0-0.2,0-0.2C87.8,487.2,87.8,487.2,87.8,487.1z M89.2,494.5l-0.9-0.7l0.7-1.3l0.8,0.8L89.2,494.5z
			 M90.1,493.8l0.1,0.7l-0.5,0.1L90.1,493.8z M89,491.6l-0.9-0.9l0.7-1.2l0.9,0.8L89,491.6z M89.4,491.9l0.5-0.8
			c0,0.5,0,0.9,0.1,1.3L89.4,491.9z M89.1,489l0.6-1l0,0c0,0.5,0,1,0.1,1.6L89.1,489z M89.6,487.4l-0.5-0.3l0.5-0.1L89.6,487.4z
			 M89.2,487.7l-0.6,0.9l-0.6-0.6l0.6-0.9L89.2,487.7z M87.9,491.3l0.8,0.8l-0.7,1.2C88,492.5,87.9,491.9,87.9,491.3z M88.2,494.3
			l0.6,0.5l-0.5,0.1C88.2,494.6,88.2,494.5,88.2,494.3z M89.6,498.6c0.1-0.1,0.3-0.2,0.5-0.1c0.2,0,0.3,0.1,0.4,0.3
			c0.2,0.3,0.2,0.8-0.1,1.1c-0.1,0.1-0.3,0.2-0.5,0.1c-0.2,0-0.3-0.1-0.4-0.3C89.2,499.3,89.3,498.8,89.6,498.6z M89.4,500.3
			c0.1,0.1,0.3,0.1,0.4,0.2c0.3,0,0.6,0,0.9-0.3c0.5-0.4,0.6-1.2,0.2-1.8c-0.2-0.3-0.5-0.5-0.8-0.5c-0.3,0-0.6,0-0.9,0.3
			c0.1-0.2,0.3-0.4,0.6-0.4c0.3,0,0.7,0,0.9,0.3c0.3,0.2,0.5,0.6,0.5,1c0.1,1-0.5,1.6-1.2,1.6c-0.2,0-0.5-0.1-0.6-0.2
			C89.4,500.4,89.4,500.4,89.4,500.3z M89.5,501.1c0.1,0.1,0.3,0.1,0.5,0.1c0,0,0.1,0,0.1,0c1-0.1,1.7-1,1.6-2.1
			c0-0.6-0.3-1.1-0.7-1.4c-0.4-0.3-0.8-0.5-1.2-0.4c-0.5,0-0.8,0.3-1,0.7c-0.2-0.9-0.3-1.7-0.4-2.6l2.1-0.3c0.1,0,0.1,0,0.2-0.1
			c0,0,0,0,0,0c-0.1-0.8-0.6-3.7-0.6-8.3c0,0-0.1-0.1-0.2-0.1l-2.1,0.1c0-0.3,0-0.5,0-0.8l2.3,0l0-0.1c0,0,0.2-4,0.5-5.8
			c0.3-1.7,0.9-5,1-5.4c0,0-0.1,0-0.1-0.1l-2.4-0.6c0.1-0.3,0.1-0.5,0.2-0.8l2.1,0.6c0,0,0.1,0,0.1,0c0,0,0.1,0,0.1,0
			c0.1,0,0.1-0.1,0.1-0.2c0.1-0.3,0.1-0.6,0.3-1.1c0,0,2.4-6.4,2.4-6.4c0-0.1,0-0.1,0-0.2c0-0.1-0.1-0.1-0.1-0.1l-2-0.8
			c0.3-0.6,0.6-1.2,0.9-1.7c0.1,0.1,0.2,0.3,0.4,0.4c0.3,0.2,0.7,0.3,1.1,0.3c-0.2,0.1-0.4,0.4-0.4,0.6c0,0.4,0.3,0.7,0.7,0.7
			c0.1,0,0.2,0,0.2,0c-1.2,2.2-2.5,5.4-3.5,9.7c0,0,0-0.1,0-0.1c-0.2,1.1-0.8,4.7-1,6.1c-0.2,1.6-0.4,4.4-0.5,5.2
			c0,0.1,0,0.2-0.1,0.3c-0.1,3.2,0.2,8.5,1.9,14.1c0.1,1,0.1,2.7-0.5,3.3c-0.3,0.2-0.5,0.4-0.8,0.6c-0.1,0.1-0.3,0.2-0.4,0.3
			C90.1,503.4,89.8,502.2,89.5,501.1z M91.4,507L91.4,507c-0.1,0-0.1,0-0.2,0c-0.2-0.1-0.5-0.1-0.7-0.8c0-0.2,0.1-0.5,0.2-0.6
			c0,0,0.1-0.1,0.1-0.2c0.1-0.2,0.3-0.3,0.7-0.5c0.3-0.2,0.6-0.4,0.9-0.7c0.5-0.5,0.7-1.3,0.8-2.1c0.3,1.2,0.2,2.3-0.1,3
			c-0.4,1.1-1.1,1.8-1.3,1.8C91.5,507,91.4,507,91.4,507z M99.7,526.1c-1.6,0.9-2.8,1.1-3.4,0.5c-0.5-0.5-0.5-1.5-0.3-1.8
			c0.3-0.5,0.6-0.8,1-0.9c0.6-0.1,1.3,0.4,1.3,0.4c0.1,0.1,0.2,0.1,0.4,0.1c0.1,0,0.2-0.1,0.3-0.2c2.6-3.1-2.4-8.9-2.6-9.1
			c-1.7-2.2-3.2-4.7-4.5-7.5c0,0,0,0,0,0c0.1,0,0.3-0.2,0.5-0.3c0.4,1.1,1.5,3.5,5.2,8.6c3.7,5.1,3.5,6.4,3.1,7.9
			c-0.1,0.3-0.1,0.7-0.2,1.1l-0.5,1.1C99.8,526.1,99.7,526.1,99.7,526.1z M100,527.3l4.4-8.5c0,0,0,0,0-0.1l1.9-4.4
			c0,0,0.4,0.4,0.4,0.4l-6,12.5C100.7,527.3,100.1,527.3,100,527.3z M101.4,527.2l1.1-1.9l3.2-7l0,0l0-0.1l1.4-3
			c0.9,0.8,1.8,1.7,2.9,2.4l0.1,0.7c0,0.2,0,0.3,0,0.5c0,0.1,0.1,0.2,0.2,0.3c0.1,0,0.2,0,0.3,0.1
			C106.8,524.9,103.6,526.7,101.4,527.2z M113.5,518.4c0,0-0.1,0.1-0.1,0.1l-2-0.4c0,0,0,0,0,0c0.1-0.5,0.5-1,1.1-1c0,0,0.1,0,0.1,0
			C113.2,517.3,113.6,517.9,113.5,518.4z M112.7,516.7c-0.7-0.1-1.3,0.3-1.6,0.9l0-0.2l0.5-1.1c0.8-1.3,2.3-2.2,3.9-2.2
			c-0.5,0.3-0.8,0.8-0.9,1.4c-0.1,0.5,0.1,1,0.4,1.4c0,0.1,0.1,0.1,0.2,0.1c-0.4,0.1-0.8,0.4-1.1,0.7
			C113.7,517.1,113.2,516.8,112.7,516.7z M117.6,515.8c-0.1,0.7-0.7,1.3-1.5,1.2c-0.4,0-0.7-0.2-0.9-0.5c-0.2-0.3-0.3-0.6-0.3-1
			c0.1-0.7,0.6-1.2,1.3-1.2c0.1,0,0.1,0,0.2,0C117.2,514.4,117.7,515.1,117.6,515.8z M116.5,512.5c0.1-0.6,0.5-1,1.1-1
			c0,0,0.1,0,0.1,0c0.6,0.1,1,0.6,0.9,1.2c0,0.3-0.2,0.6-0.4,0.7c-0.2,0.2-0.5,0.3-0.8,0.2C116.9,513.7,116.5,513.1,116.5,512.5z
			 M117,519.1C117,519.1,117,519.2,117,519.1l-3-0.4c0.2-0.7,0.8-1.3,1.5-1.3c0.1,0,0.1,0,0.2,0C116.5,517.5,117.1,518.3,117,519.1z
			 M118.8,519.5l-1.3-0.2c0,0,0,0,0-0.1c0.1-0.5,0.6-0.8,1-0.8c0,0,0.1,0,0.1,0c0.5,0.1,0.9,0.5,0.9,1.1
			C119.2,519.6,118.9,519.5,118.8,519.5z M120.1,519c-0.2-0.6-0.7-1.1-1.3-1.2c-0.5-0.1-1,0.1-1.3,0.4c-0.1-0.3-0.3-0.7-0.6-0.9
			c0.7-0.2,1.2-0.8,1.3-1.5c0-0.4-0.1-0.7-0.2-1.1c1.3,0.8,2.2,2.3,2.2,4C120.1,518.9,120.1,519,120.1,519z M120.3,517
			c-0.4-1.2-1.2-2.1-2.3-2.7c0.2-0.1,0.4-0.2,0.6-0.3c0.3-0.3,0.6-0.7,0.6-1.1c0.1-0.9-0.5-1.7-1.4-1.8h0c-0.9-0.1-1.7,0.5-1.8,1.4
			c0,0.4,0.1,0.8,0.3,1.1c-1.1-0.2-2.2,0-3.2,0.4l0.5-0.5c0,0,0.1,0,0.1,0c0.4-0.2,1.5-0.4,1.8-0.4c0.1,0,0.2-0.1,0.2-0.3
			c0-1,0.8-1.9,1.8-1.9c1,0,1.8,0.8,1.8,1.8c0,0.5-0.2,1.1-0.6,1.4c-0.1,0.1-0.1,0.2-0.1,0.2c0,0.1,0.1,0.2,0.2,0.2
			c0,0,0.9,0.4,1.5,1.7c0,0,0,0.1,0.1,0.1L120.3,517z M120.4,515.3c-0.4-0.5-0.8-0.9-1-1.1c0.3-0.4,0.5-1,0.5-1.6
			c0-1.3-1-2.3-2.3-2.3c-1.2,0-2.2,1-2.3,2.2c-0.2,0-0.6,0.1-1,0.2l6.2-7.3c0.1,0,0.1,0,0.2,0.1L120.4,515.3z M121.4,516.3l-0.5,1.3
			l0.3-12c0,0,0.1,0,0.1,0c0.1,0,0.2,0,0.4-0.1L121.4,516.3z M121.9,514.8l0.3-9.4c0.1,0,0.1-0.1,0.2-0.1c0.1,0.8,0.8,1.4,1.6,1.5
			c0.1,0,0.1,0,0.2,0c0.3,0,0.6-0.1,0.9-0.3L121.9,514.8z M125.5,505.1c-0.1,0.7-0.7,1.2-1.5,1.1c-0.7-0.1-1.2-0.8-1.1-1.5
			c0.1-0.7,0.6-1.2,1.3-1.2c0.1,0,0.1,0,0.2,0C125.1,503.7,125.6,504.4,125.5,505.1z M126,504.4c-0.2-0.7-0.8-1.2-1.5-1.3
			c-0.5-0.1-1,0.1-1.3,0.4c0-0.2-0.1-0.4-0.2-0.5l6-6.2L126,504.4z M129.4,495.4l-6.8,7.1c-0.1-0.1-0.2-0.2-0.3-0.2l7.5-8
			L129.4,495.4z M126.7,494.8c-0.2,0-0.3,0-0.5,0c0.3-0.2,0.6-0.5,0.7-0.9c0.2-0.5,0.1-1-0.1-1.4c0.4,0,0.8-0.2,1.2-0.4
			c0.1,0.5,0.5,1,1,1.2c0.2,0.1,0.4,0.1,0.6,0.1c0.1,0,0.2,0,0.3,0C129.1,494.3,127.9,494.8,126.7,494.8z M130.6,492.1
			c-0.2,0.6-0.8,0.9-1.4,0.6c-0.6-0.2-0.8-0.8-0.6-1.4c0,0,0-0.1,0.1-0.2c0.3-0.5,0.8-0.7,1.3-0.5
			C130.5,490.9,130.8,491.6,130.6,492.1z M131,491c-0.2-0.3-0.5-0.6-0.8-0.7c-0.2-0.1-0.4-0.1-0.6-0.1c-0.3,0-0.6,0.1-0.8,0.2
			c0-0.4-0.2-0.8-0.4-1.2c0.5-0.1,1-0.5,1.2-1c0.1-0.3,0.1-0.6,0.1-0.9C130.6,488.1,131.1,489.5,131,491z M131.1,488.5
			c-0.4-0.8-0.9-1.5-1.7-2c0.1-0.1,0.3-0.1,0.4-0.2c0.3-0.2,0.5-0.6,0.6-1c0.1-0.8-0.5-1.6-1.3-1.7h0c-0.4,0-0.8,0.1-1.1,0.3
			c-0.3,0.2-0.5,0.6-0.6,1c0,0.3,0,0.6,0.2,0.8c-0.3-0.1-0.6-0.1-0.9-0.1c-0.4,0-0.8,0.1-1.1,0.2l0.1-0.2c0.7,0,1.4-0.2,1.4-0.2
			c0.1,0,0.2-0.1,0.2-0.3c0-0.9,0.7-1.7,1.6-1.7c0.9,0,1.6,0.7,1.6,1.6c0,0.5-0.1,0.8-0.5,1.1c-0.1,0.1-0.1,0.1-0.1,0.2
			c0,0.1,0,0.2,0.1,0.2c0,0,0.7,0.5,1.1,1.6c0,0,0,0,0,0L131.1,488.5z M131.1,487.1c-0.2-0.3-0.5-0.6-0.6-0.8
			c0.3-0.4,0.5-0.8,0.5-1.3c0-1.2-0.9-2.1-2.1-2.1c-1.1,0-2,0.9-2.1,2c-0.2,0-0.4,0.1-0.6,0.1l4.3-5.4c0.2,0.2,0.5,0.3,0.8,0.4
			c0,0,0.1,0,0.1,0L131.1,487.1z M132,488.9l-0.4,0.9l0.3-9.9c0.1,0,0.2-0.1,0.4-0.1L132,488.9z M132.2,479.2
			c-0.2,0.2-0.6,0.3-0.9,0.2c-0.6-0.1-1.1-0.7-1-1.3c0-0.3,0.2-0.6,0.5-0.8c0.2-0.2,0.5-0.2,0.7-0.2c0,0,0.1,0,0.1,0h0
			c0.1,0,0.3,0.1,0.4,0.1c0,0,0,0,0.1,0c0.2,0.1,0.3,0.3,0.4,0.5c0,0.1,0,0.2,0.1,0.2c0,0.2,0.1,0.3,0,0.5
			C132.6,478.7,132.5,479,132.2,479.2z M132.5,487.4l0.2-7.1c0.3,0.4,0.7,0.7,1.2,0.7c0.4,0.1,0.8-0.1,1.2-0.3L132.5,487.4z
			 M135.3,479.5c0,0.3-0.2,0.6-0.4,0.8c-0.2,0.2-0.6,0.3-0.9,0.2c-0.6-0.1-1.1-0.7-1-1.3c0-0.3,0.2-0.6,0.5-0.8
			c0.2-0.2,0.5-0.2,0.7-0.2c0,0,0.1,0,0.1,0C135,478.2,135.4,478.8,135.3,479.5z M135.8,478.9c-0.2-0.7-0.7-1.2-1.4-1.3
			c-0.4-0.1-0.9,0.1-1.2,0.3c0-0.1,0-0.1,0-0.2l5.9-7L135.8,478.9z M139.6,469.2l-6.7,8c-0.1-0.1-0.2-0.2-0.3-0.3l6.3-7.5
			c0.3-0.2,0.7-0.5,0.9-0.8L139.6,469.2z M140.1,467.1c-0.2,0.5-0.8,0.8-1.3,0.6c-0.5-0.2-0.8-0.8-0.6-1.3c0-0.1,0.1-0.1,0.1-0.2
			c0.2-0.4,0.8-0.6,1.2-0.5C140,465.9,140.3,466.5,140.1,467.1z M140.5,465.9c-0.2-0.3-0.4-0.5-0.8-0.7c-0.2-0.1-0.4-0.1-0.5-0.1
			c-0.3,0-0.5,0.1-0.7,0.2c0-0.4-0.2-0.8-0.4-1.1c0.5-0.1,0.9-0.5,1.1-1c0.1-0.3,0.1-0.6,0.1-0.8
			C140.1,463.3,140.6,464.6,140.5,465.9z M141,465.2C141,465.2,141,465.2,141,465.2c-0.1-1.7-1.2-3.4-3-4c-0.5-0.2-1.1-0.3-1.6-0.3
			c-1.1,0-2.2,0.4-3,1.1l-0.4,0.3c0.6-1.5,0.2-1.8-0.1-2c-0.4-0.3-0.8,0-1.1,0.2c-0.3,0.1-1.8,3-1.8,3l0.1-1.7l0.9-1.5
			c0-0.1,0.1-0.2,0.1-0.3c1-1,2.9-1.3,5.8-0.8C139.7,459.7,141.5,462.4,141,465.2z"/>
	</g>
	<g>
		<path class="st4" d="M526.9,485.9h5.6c3.7,0,6.7-3,6.7-6.7v-7.5c0-3.7-3-6.7-6.7-6.7h-5.6c-3.7,0-6.7,3-6.7,6.7v7.5
			C520.1,482.8,523.2,485.9,526.9,485.9z"/>
		<path class="st4" d="M504.3,486h6.2c3.5,0,6.4-2.9,6.4-6.4v-6.3c0-3.5-2.9-6.4-6.4-6.4h-6.2c-3.5,0-6.4,2.9-6.4,6.4v6.3
			C497.9,483.1,500.8,486,504.3,486z"/>
		<g>
			<path class="st4" d="M672.6,448.6v16.6h-2.3v-7.3h-8.2v7.3h-2.3v-16.6h2.3v7.1h8.2v-7.1H672.6z"/>
			<path class="st4" d="M687,453.3v11.9h-2.2v-1.7c-0.7,1.1-1.9,1.9-3.6,1.9c-2.3,0-4.4-1.8-4.4-5.3v-6.8h2.2v6.5
				c0,2.3,1.2,3.6,2.9,3.6c1.7,0,2.9-1.2,2.9-3.6v-6.5H687z"/>
			<path class="st4" d="M708.9,458.3l0,6.9h-2.2v-6.5c0-2.1-1.1-3.5-2.8-3.5c-1.7,0-2.8,1.4-2.8,3.6v6.5h-2.2v-6.5
				c0-2.1-1.1-3.5-2.8-3.5c-1.7,0-2.8,1.4-2.8,3.6l0-0.1v6.5h-2.2v-11.9h2.2v1.6c0.7-1,1.9-1.9,3.5-1.9c1.5,0,3,0.8,3.7,2.4
				c0.7-1.3,2.1-2.4,4-2.4C707,453.1,708.9,454.9,708.9,458.3z"/>
			<path class="st4" d="M723.7,453.3v11.9h-2.2v-1.9c-0.9,1.2-2.3,2.1-4.1,2.1c-3.3,0-5.6-2.7-5.6-6.1c0-3.4,2.3-6.1,5.6-6.1
				c1.8,0,3.1,0.8,4.1,2.1v-1.9H723.7z M721.5,459.3c0-2.1-1.5-3.9-3.7-3.9c-2.1,0-3.6,1.8-3.6,3.9c0,2.2,1.5,3.9,3.6,3.9
				C720,463.2,721.5,461.4,721.5,459.3z"/>
			<path class="st4" d="M738.1,458.4v6.8h-2.2v-6.5c0-2.3-1.2-3.6-2.9-3.6c-1.7,0-2.9,1.2-2.9,3.6v6.5h-2.2v-11.9h2.2v1.7
				c0.7-1.1,1.9-1.9,3.6-1.9C736,453.1,738.1,454.9,738.1,458.4z"/>
			<path class="st4" d="M659.3,484.2c0-4.6,3.3-8.6,8.5-8.6c1.5,0,2.8,0.3,3.9,0.9v2.5c-0.9-0.8-2.2-1.2-3.9-1.2
				c-3.7,0-6.2,3-6.2,6.4c0,3.4,2.5,6.4,6.2,6.4c1.7,0,2.9-0.5,3.9-1.2v2.5c-1.1,0.6-2.4,0.9-3.9,0.9
				C662.6,492.8,659.3,488.8,659.3,484.2z"/>
			<path class="st4" d="M685.6,480.6v11.9h-2.2v-1.9c-0.9,1.2-2.3,2.1-4.1,2.1c-3.3,0-5.6-2.7-5.6-6.1c0-3.4,2.3-6.1,5.6-6.1
				c1.8,0,3.1,0.8,4.1,2.1v-1.9H685.6z M683.4,486.6c0-2.1-1.5-3.9-3.7-3.9c-2.1,0-3.6,1.8-3.6,3.9c0,2.2,1.5,3.9,3.6,3.9
				C681.9,490.5,683.4,488.7,683.4,486.6z"/>
			<path class="st4" d="M701.6,486.6c0,3.4-2.3,6.1-5.6,6.1c-1.8,0-3.1-0.8-4.1-2.1v6.6h-2.2v-16.6h2.2v1.9c0.9-1.2,2.3-2.1,4.1-2.1
				C699.4,480.5,701.6,483.1,701.6,486.6z M699.3,486.6c0-2.2-1.5-3.9-3.6-3.9c-2.1,0-3.7,1.9-3.7,3.9c0,2.1,1.5,3.9,3.7,3.9
				C697.8,490.5,699.3,488.7,699.3,486.6z"/>
			<path class="st4" d="M705,476.9c0-0.8,0.6-1.5,1.5-1.5c0.9,0,1.5,0.7,1.5,1.5c0,0.9-0.6,1.5-1.5,1.5
				C705.6,478.4,705,477.7,705,476.9z M705.4,480.6h2.2v11.9h-2.2V480.6z"/>
			<path class="st4" d="M717.3,482.8h-2.4v9.7h-2.2v-9.7h-1.5v-2.1h1.5v-3.2h2.2v3.2h2.4V482.8z"/>
			<path class="st4" d="M730.7,480.6v11.9h-2.2v-1.9c-0.9,1.2-2.3,2.1-4.1,2.1c-3.3,0-5.6-2.7-5.6-6.1c0-3.4,2.3-6.1,5.6-6.1
				c1.8,0,3.1,0.8,4.1,2.1v-1.9H730.7z M728.4,486.6c0-2.1-1.5-3.9-3.7-3.9c-2.1,0-3.6,1.8-3.6,3.9c0,2.2,1.5,3.9,3.6,3.9
				C726.9,490.5,728.4,488.7,728.4,486.6z"/>
			<path class="st4" d="M734.8,473.5h2.2v19h-2.2V473.5z"/>
			<path class="st4" d="M659.8,503.2h2.3v16.6h-2.3V503.2z"/>
			<path class="st4" d="M676.7,513v6.8h-2.2v-6.5c0-2.3-1.2-3.6-2.9-3.6c-1.7,0-2.9,1.2-2.9,3.6v6.5h-2.2v-11.9h2.2v1.7
				c0.7-1.1,1.9-1.9,3.6-1.9C674.6,507.7,676.7,509.4,676.7,513z"/>
			<path class="st4" d="M680.6,504.1c0-0.8,0.6-1.5,1.5-1.5s1.5,0.7,1.5,1.5c0,0.9-0.6,1.5-1.5,1.5S680.6,505,680.6,504.1z
				 M681,507.9h2.2v11.9H681V507.9z"/>
			<path class="st4" d="M692.9,510.1h-2.4v9.7h-2.2v-9.7h-1.5v-2.1h1.5v-3.2h2.2v3.2h2.4V510.1z"/>
			<path class="st4" d="M695.6,504.1c0-0.8,0.6-1.5,1.5-1.5c0.9,0,1.5,0.7,1.5,1.5c0,0.9-0.6,1.5-1.5,1.5
				C696.3,505.7,695.6,505,695.6,504.1z M696,507.9h2.2v11.9H696V507.9z"/>
			<path class="st4" d="M713.9,507.9v11.9h-2.2v-1.9c-0.9,1.2-2.3,2.1-4.1,2.1c-3.3,0-5.6-2.7-5.6-6.1c0-3.4,2.3-6.1,5.6-6.1
				c1.8,0,3.1,0.8,4.1,2.1v-1.9H713.9z M711.7,513.9c0-2.1-1.5-3.9-3.7-3.9c-2.1,0-3.6,1.8-3.6,3.9c0,2.2,1.5,3.9,3.6,3.9
				C710.1,517.8,711.7,515.9,711.7,513.9z"/>
			<path class="st4" d="M723.2,510.1h-2.4v9.7h-2.2v-9.7H717v-2.1h1.5v-3.2h2.2v3.2h2.4V510.1z"/>
			<path class="st4" d="M725.9,504.1c0-0.8,0.6-1.5,1.5-1.5c0.9,0,1.5,0.7,1.5,1.5c0,0.9-0.6,1.5-1.5,1.5
				C726.5,505.7,725.9,505,725.9,504.1z M726.3,507.9h2.2v11.9h-2.2V507.9z"/>
			<path class="st4" d="M743,507.9l-5.2,11.9h-1.4l-5.2-11.9h2.4l3.5,8.6l3.5-8.6H743z"/>
			<path class="st4" d="M755.6,514.8h-9.1c0.4,1.9,1.8,3.1,3.9,3.1c1.6,0,2.8-0.5,3.9-1.3v2.3c-1,0.7-2.4,1.2-4,1.2
				c-3.8,0-6.1-2.8-6.1-6.1c0-3.3,2.3-6.1,5.8-6.1C753.7,507.8,755.9,511,755.6,514.8z M746.6,512.9h6.7c-0.3-1.7-1.5-2.9-3.3-2.9
				C748.2,510,746.9,511.2,746.6,512.9z"/>
		</g>
		<g>
			<path class="st5" d="M546.2,446.8v73.1h-9.9v-32.1h-36.1v32.1h-9.9v-73.1h9.9v31.4h36.1v-31.4H546.2z"/>
			<path class="st5" d="M561.3,483.3c0-20.3,14.6-37.8,37.4-37.8c6.7,0,12.3,1.4,17.2,3.9v11.2c-4.2-3.3-9.7-5.4-17.1-5.4
				c-16.4,0-27.4,13.2-27.4,28.2c0,15,11,28.2,27.4,28.2c7.4,0,12.9-2.1,17.1-5.4v11.2c-4.9,2.5-10.5,3.9-17.2,3.9
				C575.9,521.1,561.3,503.6,561.3,483.3z"/>
			<path class="st5" d="M629.2,446.8h9.9v73.1h-9.9V446.8z"/>
		</g>
		<linearGradient id="SVGID_1_" gradientUnits="userSpaceOnUse" x1="471.2953" y1="481.4761" x2="561.3733" y2="481.4761">
			<stop  offset="0.1083" style="stop-color:#FEA621"/>
			<stop  offset="0.2441" style="stop-color:#E59E30"/>
			<stop  offset="0.5216" style="stop-color:#AA8A50"/>
			<stop  offset="0.9129" style="stop-color:#5E6B6A"/>
			<stop  offset="1" style="stop-color:#4F646D"/>
		</linearGradient>
		<path class="st6" d="M561.4,484.1l-15.2-15.2v7.8h-58.7c-5.4,0-9.2-0.9-11.3-2.6c-2.1-1.7-3.1-4.9-3.1-9.4v-1h-1.8v7.5
			c0,5,0.4,8.7,1.1,10.9c0.8,2.3,2.3,4.3,4.5,6c2.9,2.3,7.9,3.4,15,3.4h54.3v7.8L561.4,484.1z"/>
		<circle class="st4" cx="529.6" cy="458.6" r="4.1"/>
		<circle class="st4" cx="507.4" cy="459.9" r="4.1"/>
		<circle class="st4" cx="517.4" cy="455.8" r="4.1"/>
	</g>
</g>
</svg>
